/* XPM */
static char *ee8ac2441bd7487383a10990e4d3bc16RRN3trBR8D7sKVSL[] = {
/* columns rows colors chars-per-pixel */
"64 64 249 2 ",
"   c #178CBD",
".  c #118FBA",
"X  c #2B9EBB",
"o  c #0F8BC2",
"O  c #178DC4",
"+  c #1B98C7",
"@  c #2C9BCD",
"#  c #2598C9",
"$  c #309CCC",
"%  c #249AD2",
"&  c #2A9ED2",
"*  c #219AD7",
"=  c #319FD2",
"-  c #18ADD8",
";  c #1AB5D9",
":  c #13A5D2",
">  c #25A3CD",
",  c #2BABCC",
"<  c #23ACCD",
"1  c #38AACB",
"2  c #25B4CB",
"3  c #3CB4CE",
"4  c #37B3CF",
"5  c #2BA3D4",
"6  c #2CAAD4",
"7  c #27A8D5",
"8  c #34A3D2",
"9  c #39A4D4",
"0  c #33A5DB",
"q  c #33ABDB",
"w  c #3CACDC",
"e  c #38AAD4",
"r  c #24B3D4",
"t  c #2BB4D5",
"y  c #2CB4DB",
"u  c #24BBDD",
"i  c #2CBCDB",
"p  c #26B9D7",
"a  c #33B0D5",
"s  c #3CB2D4",
"d  c #34B3DB",
"f  c #3CB3DC",
"g  c #32BBDD",
"h  c #3CBBDC",
"j  c #37BBD4",
"k  c #18ADE3",
"l  c #0ABCE7",
"z  c #1AB8E7",
"x  c #3BADE2",
"c  c #36ACE4",
"v  c #24B5E2",
"b  c #23BBE4",
"n  c #2CBCE3",
"m  c #2ABAE7",
"M  c #35B2E3",
"N  c #3CB3E3",
"B  c #33BDE3",
"V  c #3BBCE3",
"C  c #3EB4E9",
"Z  c #32BCEB",
"A  c #43ADDB",
"S  c #45BBD6",
"D  c #43B2DD",
"F  c #4BB5DC",
"G  c #44BCDC",
"H  c #4BBBDC",
"J  c #46B8D3",
"K  c #53BBD9",
"L  c #40A6CC",
"P  c #43AFE2",
"I  c #43B3E3",
"U  c #4AB5E5",
"Y  c #44BDE4",
"T  c #4CBBE4",
"R  c #44B4EA",
"E  c #44BAEC",
"W  c #4DBCEB",
"Q  c #4BB5EC",
"!  c #52BDE5",
"~  c #52BDEB",
"^  c #57B8E4",
"/  c #4CBDF3",
"(  c #46BFF6",
")  c #54BBF2",
"_  c #2DC2DD",
"`  c #28C6DB",
"'  c #34C2DC",
"]  c #3BC2DD",
"[  c #0CC5ED",
"{  c #09C6ED",
"}  c #1CC3E6",
"|  c #14C3EB",
" . c #1BC4EA",
".. c #13C9EE",
"X. c #1CCCEE",
"o. c #14C4E5",
"O. c #0DC5F2",
"+. c #0DCAF5",
"@. c #0FCEFB",
"#. c #13C6F2",
"$. c #13CBF4",
"%. c #1BCBF4",
"&. c #18CAF5",
"*. c #14D3FB",
"=. c #1BD0F4",
"-. c #23C2E5",
";. c #2DC2E4",
":. c #24C6EC",
">. c #2BC3EC",
",. c #23C9EC",
"<. c #2CCBEC",
"1. c #25C8E7",
"2. c #33C3E3",
"3. c #3CC3E3",
"4. c #35CBE4",
"5. c #3CCAE5",
"6. c #33C4EA",
"7. c #3CC5EC",
"8. c #34CBEC",
"9. c #3CCCEB",
"0. c #29D1EF",
"q. c #3DD1E5",
"w. c #33D1EC",
"e. c #3DD3EC",
"r. c #3ED9ED",
"t. c #25CCF2",
"y. c #2DCDF2",
"u. c #2AC4F1",
"i. c #3BC5F2",
"p. c #34CCF2",
"a. c #3BCCF3",
"s. c #36C8F5",
"d. c #2CD2F5",
"f. c #2AD5FB",
"g. c #27D5F7",
"h. c #35D3F3",
"j. c #3CD3F4",
"k. c #33D4FA",
"l. c #3CD5FA",
"z. c #3CDAFA",
"x. c #38D9F8",
"c. c #3FE3FF",
"v. c #43C3DD",
"b. c #4BC2DC",
"n. c #48C9DE",
"m. c #55C5DD",
"M. c #44C4E3",
"N. c #4CC4E4",
"B. c #44CAE5",
"V. c #4BCAE5",
"C. c #44C3EB",
"Z. c #4BC4EB",
"A. c #43CCEC",
"S. c #4BCCEC",
"D. c #53C3E5",
"F. c #53CCE5",
"G. c #5ACBE5",
"H. c #54C4EB",
"J. c #5AC3EB",
"K. c #53CCEC",
"L. c #5ACDEC",
"P. c #5CC1E2",
"I. c #45D1E6",
"U. c #45D2ED",
"Y. c #4CD3ED",
"T. c #41D8ED",
"R. c #4DD9EE",
"E. c #48D3E5",
"W. c #51D1E6",
"Q. c #53D3ED",
"!. c #5BD3ED",
"~. c #5DDAEE",
"^. c #57D5EA",
"/. c #4CC3F3",
"(. c #43CDF2",
"). c #4CCCF3",
"_. c #47CBF8",
"`. c #55C4F3",
"'. c #5BC4F2",
"]. c #54CCF2",
"[. c #5CCCF4",
"{. c #56C5F9",
"}. c #5BCBFA",
"|. c #5CC6FF",
" X c #44D4F3",
".X c #4CD4F3",
"XX c #44DAF5",
"oX c #4DDAF5",
"OX c #43D4FB",
"+X c #4BD3FA",
"@X c #44DCFB",
"#X c #4CDBFB",
"$X c #54D4F3",
"%X c #5CD4F4",
"&X c #54DBF4",
"*X c #5CDBF4",
"=X c #53D5FB",
"-X c #5CD5FA",
";X c #54DCFB",
":X c #5CDCFC",
">X c #63CBEC",
",X c #62C5E9",
"<X c #63D4EC",
"1X c #64DAEE",
"2X c #6ADAEE",
"3X c #6BD5ED",
"4X c #62C6F2",
"5X c #62CCF4",
"6X c #6ACBF4",
"7X c #63CCFB",
"8X c #69CEF9",
"9X c #60C4FF",
"0X c #63D4F4",
"qX c #6AD5F4",
"wX c #63DBF4",
"eX c #6BDCF5",
"rX c #63D5FB",
"tX c #6BD4FC",
"yX c #64DCFC",
"uX c #6BDCFC",
"iX c #73DCF5",
"pX c #71D4FC",
"aX c #72DDFC",
"sX c #7CDDFE",
"dX c #74D6F5",
"fX c #71D5ED",
"gX c #4EE1F5",
"hX c #44E1FF",
"jX c #4CE1FE",
"kX c #5DE1F6",
"lX c #55E2FE",
"zX c #5CE2FD",
"xX c #56E9FF",
"cX c #64E1F6",
"vX c #6BE2F5",
"bX c #64E3FD",
"nX c #6CE3FD",
"mX c #64EAFF",
"MX c #6BEAFF",
"NX c #72E2F6",
"BX c #73E3FD",
"VX c #7AE4FD",
"CX c #73EAFF",
"ZX c #7AEAFF",
"AX c #73F2FF",
"SX c #69F1FF",
"DX c #84DEFF",
"FX c #81E5FD",
"GX c #84EBFF",
/* pixels */
"7 M R Q ) 9X9X) ) ) {.E 0 & 5 q P U U W '.'.`.`.'.7X6X4X}.}./.c * # & R C c c Q U P U Q ) '.Q Q Q C 5 O 5 d w 6 > q 7._.c M C E ",
"5 * C ( 9X9X9X7X7X/ 8 # # 8 w I 8 9 D H.7X}./.E W '.4XK F I % o   O 0 C R Q / Q 0 @ $ 9 U U F W f 8 # # U `.Z.C /.).{.C.5 % q C ",
"* o O c x 0 # # O O   8 ~ '.8X'.~ P A I I P q w 9 A ^ F H H.w 8 E I `.[.`.) {.}.{.`.}.7XtXuXuXuXBXyXwX0XL.H T H.].w 5 5 0 C ( /.",
"* O * * % O O O   @ U J.5X4X4X4X5XJ.`.}.) x x C P ^ 4X4X4X5XJ.! ! H D.[.rX}.W P A T '.7X>XJ.K D.0XG.G.0X0X>XJ.T S I Z.Y V M E ( ",
"* % % % & 0 x 0 N R `.`.~ U D J.6X5X}.-X/ c 0 N / ~ '.8XtX4X>XfX6XdXdXpXtXJ.F F J.[.0X0X4X>X,X<XG.D.L.qXqXtXtXrX[.rXyXyX=X=XyXyX",
"* & & 0 I ) ) U W W `.`.U w $ A U D N C E R E /.}.|.4X8XL.F K ,XsXDXsXsXdX>X5XaXtXaXaXuXuXVXsXaXwXD.D.qXuXtX5XH.U Z.}.=X].Z.C.V ",
"x /.{.}.7X) `.^ P '.'.Q P w P R I 9 O . 5 C /.[.5X7X8X4X! F K ,X6X6XpXpXaXVXaX!.F S H.-XuX}.`.].F.v.N.yXyX[.Y f Y d 7 6 6 6 > > ",
"I }.{.{./ w 8 # 9 |.~ 9 $ e '.`.~ E 7 % M / T K J.5XpX! F ! K >XJ.^ J.5X>XqXuX0XJ s G G V d q d Z.K.%XbX-X=X/.).=XV > > > 7 @ 6 ",
"7X7X{.R 8     9 T A A F ^ 4X4X4X{.0 o o 5 # 9 F K dXtX5X[.0XqXqX! 0XyXuX<XD.m.H 3 S h , t + < t a h S..X.X=XlX=Xi.q d 7.Z./.}.}.",
"}.Q 0 % q W ].}.H.! '.J.6XpXpXpXtX=X_.M I T >X3XdX,XL ! [.N.D.5XL.rXL.1 X 1 L J F.Q.$XbX:X+Xn r V C.].C.> . + 7 y t C.=XrXyXuXtX",
"x @ = I W U Q H.'.7X8XtXtX7X4X7X/ q q Y [.aXeX,X>X>X4XBXnXY s N.D.J.D.s G %X-XyXMX:X$X:X3.S.S.$X=X:X].M t C.S.3.7..XbXnXyX>XqXdX",
"Q ~ '.[.[.[.H.! 4XaXtXtXuXtXrX0 + . + d ].aXaXaXaXVXVXBX-X%X-XuXyXeXyX-XyXbX=X+X_.d y g 3.V.;X).-XZ.Y Z.S.S.=XmXbX:XwXwXuXpXdXfX",
"tXtXrX5X5X5X4XpXsXtXtXtX}.C.M O > q I ].aXVXVXBXaX0XaXuX-XyX:XyXrXyX-X)._.Z m v n v m n M 3.=X:X%XQ.W.%XnXnX-XQ.v.S G D.>X7X8X8X",
"! ! D.H.5XrXL.6X6XA ~ T 8 > + y E yXnXZXVXaXeXyX].T [.[.N.K.Z.]./.E q d M 7 7 y OX6.n t V ).:X:X:X%X%XwXW.D.b.b.L.F.H.[.uXuXtXtX",
"'.W ].rXH.S U tXH.! ! e # 6 g C.yXuX0X<XqXiX0XK.Y h w s 4 h h h h , 6 C.A.C.).].E d h S.&XzXzX$XY.S.S.Q.K.L.0XuXnXnXuXyX-XrXyXtX",
"Z.e s e # f %XyXrXtXN.H.0X}.:XyX0X5XG.K J <X!.H.$X].G D.N.M.h v.V.V.*XyX-XuXtXyXL.F.!.yXQ.B.Q.Y.Z.).-X%X-XyXbXnXnXrXK.M.T S.C.a ",
"J.! D.T [.uXaXuXyXM.Y ].N.G T 0XBXrX<XBXNXm.b.~.vXBXwXG.G.!.Q.yXnXvXnXBXVXBXaXuXaXnXeXwX0XQ.K.M.Y ].-XH.M.Z.$X:X=XC.d a V d 6 6 ",
"J.5XJ.[.aXuX-XZ.M.V V G s U J.aXBXZXBXeXeXeXvX2XNXNXiXiXaXnXnXnXnXeXBXBXaXaXaXVXuXeXnXCXnX*X%X].rXyXyX=X$X$X).).C.M.h d V C.C.(.",
"0XnX'.rX-XT q . . , j h v.%XaXVXuX<Xm.m.3XFXZXNXVXfXiXFXGXVXnXyXnXnXyXL.D.D.G.!.0XyXnXCXnXyXrXnXMXMXmXbX*XY.S.S.*X:X:X-XyXmXmXmX",
"yXBX-XyX].V d < t 6 , , S !.eXeX<XG.3XiXVXVXNXZXeXsXFXiXaXuXmX:X;X=XS.h S V.!.^.yXbXmX-X=X:X-XmXmX:X.XY.S.Y.&XyXyXwX%XL.K.$X$XK.",
"BX].U d d f ).=X=X:X-XwXNXVXiXVXFXaXaXiXNXBX<XW.nXuX!.H.S > < A.8.n B 3.B.W.&XzXzXoX X9. X#XXX#X3.g g 5.S.&XyXnXyXwXyXbX*XS.j 2 ",
"%XG H Y Y C.).Z.$X$XQ.L.3XiXFXFXqXqX<XH J F.wXwX:XzXS.t < - r Z i.6. X;XlXoX&XoX4.r ; p 2.4.4.4.2.2.A.#X$X-X:X:X-XrX%X-X$XM.M.3.",
"uX[.0X%X].$X].=X=XV.G K eXFXGXfXaXL.n.] ] B.&X&XmXzXU.2.2.B 3.(.).+X;XzX;X;X.XB.B t g 9.9.5.T..XS.S.].].M.M.K.K.N.V.K.$X$X.XU.&X",
"0X0XN.M.Y C.V S.-X$X$XwXZXGXGXfXBXK.' ] ' ] $X:XQ.Y. X XU. X;XyXnX:X:XzXlX#XXX X+X X.X:XQ.Y.*XV.%X5XeXtX].0X0X%XyXnXbXbXmXzX;XxX",
"G.!.F.N.M.] S..XS.Y.V.nXZXCX2X<X!.v.v.I.I.Q.!.J S nXkXI.R.kXcXwX0X%XN.] ' ;.;._ g V.Q.wXeXrXuXeXaXVXBXBXBXeXwXcXBXCXyX$XB.3.M.5.",
"eXnXnXmXMX&XU.A.] M.V.bXnXeXm.b.0XnXkXR.cXcXwXeXeXnX*X*XkXkXcXnX!.F.n.] i p i ' B.wXnXeXqXqXtXVXaXBXVXBXnXnXnXkX&XQ.V.h ] M.B.B.",
"eXZXnXwXmX$XB.bX:XV.s S b.S G.vXBXBXCXBXuXBXZXBXCXMXcX1XcXAXZXwXnXnX&X$XoXoX&XkXbXcXCXnXwX%XK.%XnXBXMX~.v.V.kX&XQ.lXzX&XlX.X#X#X",
"G.F.yXwXS 4 v.W.V.!.0XnXBXZXZXBXeX0XeXBXqX0XwXwXm.3 v.vXnX1XeXBXBXMXnX&X*XmXmXbXcXvXeX<XwX%XK.mX:XmXkXR.] ] ] ' t 5.U.U..X3.2.9.",
"H J yXBXK.V.%XcX1XuXnXiXBXZXGXZXCXnXBXBXL.H v.M.] ] %XnXaXBXZXBXCXBXBXuXBXVXZXnXnXBXnXcX&X:X;X.XU.oX X4.2.' i 9.#XlX+X9.a.8.8. X",
"H.rXnXnXyX!.!.nXZXBXiXVXBXiXBXBXCXnXBXBXqX!.*XQ.*X*XnXBXuXVXVXuXuXuXaXBXBXBXaXBXnXMXbXzXmXU.3.' n 9.9.n _ t ' #X+XU.t i 2.e.j.@X",
"].:X:X:X&X$X*XcXvXvXBXvXiXiXCXvXeXNXiXvXZXVXeXnXMXcXnXcXuXMXnXeXnXuXnXBXBXwX-X;XU.9.e.XX9.5.Y.&X#X#X3.i B A.=XMX:X$X3.B.U.U.r.r.",
"3.).Y V .XQ.Q.%XMXeXeXeX1XG.1X1X2Xm.2XGXBXBXZXnXcX*XcX:X:XwX*XnXnXmXbXcX*X&XA.2.;.u ;.p g .X:X*X;XzX;X.X=XmXnXyXnXbX:X&XlXq.XXr.",
"7.B.S.C.%XyXrXyXrXbX*XV.V.W.Q.^.G.<XNXBXZXZXCXcX*X&XzX&XY.V.M.S..X).9.9.h.w.0.r.5.4.B..X;XzXzX;X:XmXmXmXmXvXMXBXBX%X:X.X4.` 4.` ",
";X$X.X].-XyXyXyXrX%XS.M.$X*X*X*XMXNXvXeXnXwXwX:XMX^.R.&X$XS.Y.$XB 3.p - u x.hXx.4.A.;XmXzXmXmXlXzXlX&XI.] ~.^.F.*XCXmXT.4.` ` w.",
"+X=X=X%X].0XwXnXcXmXzXcXbX*X%XrXnXuXnX-X!.!.wXcXW.n.^.Q.&XkXmX*XbX;XA.3.A. XU.B.;XMXmX$X;XB.i p p 2 2 2 q.E.j A.SXmXXXq.4.e.gXxX",
"V V A.K.V.b.n.F.wXQ.Q.!.%X%X5XyXyXbXnXwX*X!.nXnXwX*XcXmXkX&XQ.&XQ..X$X:X:X$XK.$XnXnX%XB.j r r ; 2 p T.r.T.q.q.gXgXT.p ` w.;XmXAX",
"6 a M.$XS.v.K.wX&XW.F.~.0XeXnXnXnXyX:X%XyXwXyXeX~.cX*XR.Y.Y..X;X&XzXnXmXyX%XrXnXnXcXzX&X4.4.j.j.#X#XlX9.q.q.q.4.q.r.2 ` U.zX-XnX",
"S.&X:X:X%X$XwXyX<X0XwXnXnXyXyX-X.XS.$X%XcX1XwXwXwXCXyXS..X:X:X:XbXcXcXwXwXyXyXnXwXzXlXgXgXhXgXhX#XlXU..XY.U.I.R.gXq.` ] &XzXL.K.",
"~.bX&X%XbXnXnX].eXeXeXyXyXzX=X9.' 3.oX*XyX0XeXnXwXnXQ.*X:X:X:XbXcX~.!.wXuXbXwX:XQ.v.' ] 5.XXlXXX.XM.B.:X:XMXMX^.T.' I.xXzXcX%XL.",
"~.nX*XcXbX-X%X[.H.[.yXwX). Xj.>.;.XXlX$X!.*XnXeXnXnX0XyX-XyXyXyX!.0XuXcXbXbXzX:XI.E.I.I.&XlX.XU.5.5..XyXnXuXMXMXmXR.xXxXmXmX~.<X",
"0XF.].yX0XwX%Xv.S K.bX:X+XOXs.s.@Xz.;.lX;X:XyXBXCXuXwX1XL.!.yXnXnXuXyXnXmXmXmXzX*XR.kXcX:XS.M.Y.U.R.Q.nXZXZXuXnX^.R.~.R.kXkXW.1X",
"G 0XBXnXCXnXnXMXmX.XOXa.>.b b >.-.j.9.(.S.$XcXnXwXwX0XW.F.*XnXyXuXrXnX:X$X.XA.h V.*XnX$XK.*X-XzXzXxXmXCXMXeXG.!.cX^.j W.cXvXAXNX",
"uXuXuXeXeX~.&XzX#Xb - z u.s.6.;.7.OX(.3.:XmXmXmXmXbX&X&XzXmXzX&XK.:X:X.XA.2.] 5.V.mXmXL.Q.yX:XmXmXgX^.!.<X<X2XvX^.b.^.vXNXNXZXNX",
"'.rXyX<X!.wX:X Xm z :.u.u.6.a. X#X;X;XS.:XzX:X:X&XoXoX#X#X XA.U.;X;X;X+XA.3.A.zXbXmXnX*XQ.$X&X;XR.n.W.!.1X1XvXCXcX1XBXZXVXGXGXNX",
"%XuXuX*X$XS.2.u b u.b u.l.lXlXlX$XU.=X.X=X;X+XB.2.4.<.4.8.;.-.8.#X9.U.oXB.U.zX:XY.Y.*X&XA.E.;XI.] W.vXBXNXNXvXcXBXBXBXdXiXFXFXiX",
"wX!.%X=XC.r - v s.OXl.+X;XlXoXoXB.3.S..X#X+X8.6.;.; -.<.h.y.<.e.q.5..X;XY.=X:XY.M.Y.R.T.U.U.oX$XV.~.CXvX2XCXCXvXvXnXVXVXGXVXiXGX",
"G.%XyX.Xb ; n 6.a.+X;XzXzX#X X7.n 8.OX@Xl.8.;.y.1.<.k.x.h.8.j.#XU.kXmXbX-X*X%X$XzXmXoXY.R.B.U.;X&XcXvXnXvXCX1X~.~.cX!.nXCX1X2X1X",
"wXbX.X6.u.u.m l.;X$X=XzX#X Xj.; v j.l.8.OX@X@Xj.w.hXhXj.8.XXxXlX&X*XnXnX%X<XuXyXmXQ.I.I.] B.:X$X*X1XcXCXvX1Xn.m.&XQ.yXcX0X~.E.~.",
"qXY V a.#Xz.l.(.zX+Xl.@Xy.y.-.-.y.l.l.l.A.' ] 3.U.xXr.r.gX5.$XnX~.1XwXwXuXuXeX!.cXR.R.E.Q.zXnX-XwXnXvXeX1XG.1XcX^.kXbXzXbX%XK.W.",
"H.V.+XjX@X>.Z (. Xa.>.y.:.:. .y.k.p.a.9.3.M.%X*XkX&XgXoXR.V.1XuXwX1XnXCXCXnXyXnXcX*XcXkXmXmXnXuXnXwXwX1X1X1XcXcXQ.zX:XzXbXbXwXwX",
"-X;X(.s.u.b 6.(.V B ;.<.t.} z w.8.i 9.=X$XbXnXnX*Xv.&XkX$XwXBXeXcXcXbXmXmXbXyXyX*X$X*X$X!.0XeXaXeXuXnXCXnXnXkX*XlXlX&XoX;XzXzXzX",
"(.=XZ z - v m B B y 6.a.l.<.<.e.6.2.;XmXyXyXbXyXQ.j Y.Q.Q.uXBXNXcX*XQ.oXoX=X=X).S.$XbXyXbXnXtXqX0X%X%X:XmXzXzXlXxX#XXXe.9.T.XXXX",
"9.#X8.b z ;.8.C.S.C.+X+X+X_.#X#X X#X;XzXbXbX:X$XM.V.zXbXnXBXvXeXnXW.V.U..X XS.=XuX-X%X%XyX7X%XuXyX$XA.A.+X#X X8.8.j.gXhXjXXXe.4.",
"@XOXb n p.+X;X;X:X).yX:X+X_.=X#XOXhX XlXmX;X$XB.$X:XnXcXnXnXvXvXvXK.S.&X;XU.S.:XyX%X%X-XyX:X-X=XzXjXXXz.l.h.<.z h.z.@XjXgX@XXXx.",
"2.t r B OX;XlX#X.X+X:X_.Z s.l.k.y.h.a.A.B.3.B.Q.$X^.wX0XnXvXcXcXwX0X%X*X*X&X-XbXL.F.$X.X#X#XOXi.<.,.d.X. .| o. .d.z.@XgXlX#X#XXX",
"r r i.OX;X;XlX=XA.(._.Z v z z z ; b 2.g 3.-X*X*XW.b.wXcXcXcXmXbXyXbXyX:X*XmXMXnXbXY..XoX Xy.u.#.o.o.....O.O.#. .<.z.@X#XlXlX.X.X",
"6.Z +X+X_.(.(.B B OXs.v k k l k ; 6.+X;XyXnXCXcXwXvXnXMXmXzXoX;X:X].Y.$XzXzXzXmXzXoXx.x.t.| l l l { *.*.+.+.$.#.,.h. X.X;X&XS.3.",
"- v s.a.Z n y B _.9.m v k : k z 6.+X:XuXnXZXAXCXCXbXyX:X;X@XXXXX&X.X&XlX XA.9.9.@Xw.0.X.....O.@.+.+.*.*.@.+.#.z -.p. X.X&X;X$XY.",
"- 3.l.i.m n g A.zXS.V 7.i.7.s.OX+X&X*XnXZX1XG.cXAX&X.Xj.8.y.d.-.8.jXXX@Xy.b -.d.f.X...[ { { l O.+.{ $.*.@.#.%.:.y.z.;XzXmX:X$X$X",
"9.#XOXB M (.$XmXMXbX;X$X+X).+X=X*XmXMXnXBXMXvXcXE._ i -.:.,.d.t.@XxXhXc.,.t.f.f.%.$.$.*.@.+.O.O.l | &.%.#.t.f.z.#X#X#X#X.XY.U.oX",
":X:X+XC.=X:XyXnXeXmXzXzXU.A.$XcXMX*XmXCXcXwXcX;X Xw.1.,.} }  .y.h.jX0.0.%.&.#.#.#.....*.*.$.| [ l %.t.,.:.p.l.OX+X X_.(.7.3. X&X",
"-X$X=X+X;X+X-XyXnXmX;XU.5.5..X:X&XmXcX$X*XzX$X Xj.h.} } ,.k.j.OX@Xx.1.X.o.=.%.l | | l  .%.#.|  .t.k.k.8.8. X X7.a.9.(. X(.(.+X;X",
"$XA.(.p.n y V S.=X.X2.u ;.p.+X.XM.E.B.V.:X=XC.+X8.} ; 0.x.#X:X;XxX@X1.o.=.=.X.,.d.h.d.d.d.f.f.f.f.z.OX XoX;X$XA.(.i.C.i.a.+X=X+X",
".XA.a.8.v n y y (.a.u z u.s._.=X$Xn.M.$X).=X=X#X>.- } x.xX;XuXnX;Xp.0.,.X.=.x.c.hXjXhXx.x.0.,.g.t.8.h. X;X&X;X:X+XA.Z i.OX;X+XV "
};
