/* XPM */
static char *_19f01df99c24be88873cee8f84589c4QjNZwlcG2TmGqYwU[] = {
/* columns rows colors chars-per-pixel */
"64 64 256 2 ",
"   c #3A3E27",
".  c #4B3528",
"X  c #524936",
"o  c #765966",
"O  c #746A6C",
"+  c #6A5B57",
"@  c #BB3B3C",
"#  c #B7362C",
"$  c #D82E2B",
"%  c #C8392B",
"&  c #DC332D",
"*  c #D6372C",
"=  c #C93A37",
"-  c #D53433",
";  c #DC3433",
":  c #D33A34",
">  c #D93739",
",  c #D72E35",
"<  c #E6372A",
"1  c #E23434",
"2  c #E83A38",
"3  c #F33D3A",
"4  c #E42D32",
"5  c #D4341B",
"6  c #B7443C",
"7  c #B75129",
"8  c #B25E2B",
"9  c #C7443A",
"0  c #D94539",
"q  c #D15034",
"w  c #EB433C",
"e  c #E84436",
"r  c #F04235",
"t  c #D57539",
"y  c #B13E46",
"u  c #C63B46",
"i  c #D83A41",
"p  c #E73941",
"a  c #935157",
"s  c #A84647",
"d  c #B74846",
"f  c #B75746",
"g  c #A94A54",
"h  c #A85559",
"j  c #B85757",
"k  c #A8534D",
"l  c #AD6556",
"z  c #965866",
"x  c #8B5666",
"c  c #AC5662",
"v  c #8E6870",
"b  c #AB6F6F",
"n  c #996D5A",
"m  c #C64846",
"M  c #D84942",
"N  c #C8564A",
"B  c #C95754",
"V  c #E64945",
"C  c #CE6657",
"Z  c #CC726C",
"A  c #E7726C",
"S  c #DC5460",
"D  c #FC8F6F",
"F  c #FEB665",
"G  c #FFB977",
"H  c #F8A670",
"J  c #EE9B65",
"K  c #D29D61",
"L  c #606A82",
"P  c #907389",
"I  c #AD7684",
"U  c #D57C8E",
"Y  c #2985B1",
"T  c #6EBC9A",
"R  c #7798B6",
"E  c #6FB3B1",
"W  c #5A96A2",
"Q  c #5CC89C",
"!  c #6AC29B",
"~  c #64C599",
"^  c #59C7A7",
"/  c #5AC7B7",
"(  c #4FCDB2",
")  c #66C5A5",
"_  c #6FCAB2",
"`  c #7DE3BC",
"'  c #4CE2BC",
"]  c #1D95C8",
"[  c #198FC8",
"{  c #2597CB",
"}  c #299CD5",
"|  c #329AD1",
" . c #1BB1D8",
".. c #29A4CB",
"X. c #2AA5D9",
"o. c #37A7DA",
"O. c #29B7DA",
"+. c #37B6D9",
"@. c #3AA7CD",
"#. c #13B7E6",
"$. c #3AACE3",
"%. c #27B8E4",
"&. c #37B9E5",
"*. c #36ACED",
"=. c #45A9D7",
"-. c #47B8DA",
";. c #56B9D9",
":. c #54A9CA",
">. c #76BAD9",
",. c #71B3CD",
"<. c #44AEE4",
"1. c #48B8E8",
"2. c #56BAE8",
"3. c #4AB9F3",
"4. c #54BDF3",
"5. c #69BBE7",
"6. c #6398C4",
"7. c #3AC7D9",
"8. c #32CDD8",
"9. c #0DC3ED",
"0. c #18C5EC",
"q. c #0DC6F2",
"w. c #17CAF4",
"e. c #1BD1F8",
"r. c #28C6EA",
"t. c #3CCAEC",
"y. c #38C5E8",
"u. c #26CCF1",
"i. c #38CBF4",
"p. c #2AD4F7",
"a. c #3AD5F7",
"s. c #39D1EE",
"d. c #3CE3FF",
"f. c #49C9DB",
"g. c #58C8D9",
"h. c #49D4D6",
"j. c #58D7D5",
"k. c #50CFC5",
"l. c #79DBC9",
"z. c #67C6D8",
"x. c #69D6DA",
"c. c #77DAD8",
"v. c #71CCD1",
"b. c #5AE2D1",
"n. c #68E4D7",
"m. c #77E4D8",
"M. c #70E9CE",
"N. c #43CCEB",
"B. c #4BCBEC",
"V. c #48C6E6",
"C. c #57C7E9",
"Z. c #4CD3EB",
"A. c #49D5E9",
"S. c #53D3EC",
"D. c #58D6E9",
"F. c #43CCF3",
"G. c #49C9F4",
"H. c #5CCBF3",
"J. c #58C7F7",
"K. c #44D3F3",
"L. c #4CD3F3",
"P. c #4CDBFB",
"I. c #47D7F9",
"U. c #53D4F3",
"Y. c #5CD5F3",
"T. c #53DBF4",
"R. c #5CDBF4",
"E. c #54D4FB",
"W. c #53DCFC",
"Q. c #5BDCFB",
"!. c #5AD5FA",
"~. c #66C7EA",
"^. c #76C7E7",
"/. c #67D7EB",
"(. c #75D7E8",
"). c #66CAF6",
"_. c #78CBF8",
"`. c #63D4F5",
"'. c #63DBF4",
"]. c #6BDBF5",
"[. c #63D3FB",
"{. c #63DCFC",
"}. c #6BD6F8",
"|. c #76D9F9",
" X c #49E3FE",
".X c #5CE4FB",
"XX c #58E2F8",
"oX c #59E0E8",
"OX c #66E3EB",
"+X c #76E5E6",
"@X c #64E3FD",
"#X c #6BE3FC",
"$X c #68E6F8",
"%X c #75E5F9",
"&X c #72F0FB",
"*X c #8E8995",
"=X c #AE8E91",
"-X c #8F92A9",
";X c #B092AD",
":X c #91AEB9",
">X c #A6A8BA",
",X c #B9ABAB",
"<X c #BBA99D",
"1X c #EF958B",
"2X c #F4AF9A",
"3X c #C895B0",
"4X c #CDABB3",
"5X c #FFB7AA",
"6X c #FAB9B7",
"7X c #F5AAA2",
"8X c #D49497",
"9X c #87D6BB",
"0X c #8DCEB1",
"qX c #A8D2B7",
"wX c #FEC9B9",
"eX c #FFD3BE",
"rX c #FFC7AB",
"tX c #DECDBB",
"yX c #89B9C7",
"uX c #93B1CB",
"iX c #A6B4CA",
"pX c #AFB0CB",
"aX c #8ABDE4",
"sX c #84DAC5",
"dX c #9BC8DC",
"fX c #8DD1D1",
"gX c #A5C6D4",
"hX c #86E2D2",
"jX c #87C9E9",
"kX c #87D8F7",
"lX c #90CFEC",
"zX c #AED6E9",
"xX c #8CEEF5",
"cX c #AEEBF0",
"vX c #D1D3CA",
"bX c #FDC9C6",
"nX c #FDD7C8",
"mX c #FFDCD3",
"MX c #FFD4D1",
"NX c #EAD4CE",
"BX c #FCE3CC",
"VX c #FEE3D3",
"CX c #FEECDC",
"ZX c #FAE9D7",
"AX c #FDF3DC",
"SX c #FAF4DA",
"DX c #E7E6D2",
"FX c #FCD9E4",
"GX c #FEECE2",
"HX c #FFE9E9",
"JX c #FDF4E2",
"KX c #FEFAE3",
"LX c #FBF7E7",
"PX c #ECF5ED",
"IX c #CCEEDD",
"UX c #D7ABC2",
/* pixels */
"X.*.*.3.4.J.J.C.4.2.4.4.$.| } $.<.1.2.2.J.C.4.5.J.).).5.).J.3.*.] ] o.<.<.$.$.3.3.$.<.1.C.V.-.-.&.&.} [ } $.<.$.} *.G.4.$.X.&.y.",
"} } *.3.4.J.J.J.J.1.| | | | =.$.o.o.<.4.H.J.C.4.4.J.4.4.-.<.X.[ [ ] $.<.<.3.4.3.$.} | o.-.1.-.2.f.o.{ } 1.G.4.1.G.1.4.1.X.X.+.O.",
"] [ { *.$.$.} [ [ { { o.1.4.!.J.1.$.<.3.3.<.o.o.o.-.2.;.1.2.$.o.1.3.2.).).4.4.4.G.C.J.).).}.).}.].}.}.[.G.1.C.C.J.+.@.@.X.%.&.&.",
"] [ ] } { ] [ [ [ } <.4.H.J.J.J.J.4.).J.3.$.$.1.$.1.J.J.H.~.C.2.1.4.4.H.).J.1.1.=.-.).}._.~.2.z.}.C.).[.`.H.C.-.+.-.;.f.&.&.G.J.",
" .[ { { { | o.o.o.<.2.~.2.1.1.J.).J.).[.V.o.o.o.y.V.J.[.[.).~.(.).(.].].`.C.2.;.5.~.).).).5.5._.C.2.~./._./././.S.Y.[.!.H.J.[.[.",
"X.X.o.$.1.4.G.1.1.4.H.2.-.=.| =.3.<.$.$.1.1.1.C.!.G.J.J.H.;.:.5.kX%X(.|.}.~._._.lXjXlXjXkXkXkX_.|.g.C.`.|.).C.V.f.V.E.E.C.V.1.G.",
"$.4.4.J.).4.3.1.&.J.2.2.=.=.<.2.<.=.{ [ X.&.G.J.).).).).2.;.;.5.^.z._.|._._.kXaXR :X:XiXpXuXuX>.;.;.C.}.|.).-.-.&.O.X.X.O.....] ",
"<.).).4.3.$.} } o.C.2.o.@.+.2.4.2.1.| { *.3.1.3.J.)._.5.2.5.5.5.E Y 5._.jXlXpX>XO o a x x x O R :X>.^.}.[.!.C.B.G.&.X.X...@...X.",
").J.J.1.| { ] <.1.<.=.:.2.H.).).J.o.{ [ X.X.O.1.J.).}.).~.^.jX:.W ,.lXaXiX*Xz h s d 6 6 @ s g a x P uXaX5.H.Q.F.F.O.*.i.1.4.).2.",
"H.V.o.{ $.3.4.J.5.2.5.5.^._._.|.[.4.V.$.o.1.H.C.).).=.2.^.>.R L R aXiX*Xv h @ = = : % * - : : 9 s g o -X6.| { +.+.+.F.!.[.}.|.|.",
"+.....-.1.4.2.2.).>.jXlXaXaXaX5.3.o.$.1.~.}.|.x.).).4.kXlXR L P pX>X=Xc s = : - : : > ; > 2 - * u @ k x *X6.;.V.V.B.!.@X{.[.[.).",
"f.V.C.H.J.2.C.5.aXaXpXpXpXpXpXR 6.Y Y @./.(.kX(.|.|.kXkXiXO o 3X3XI c y = : ; , * : - ; , 1 & 1 - : % s x >XjX`.'.{.'.{.{.{.{.].",
"J.}.).H.`.~.^.dXpXv c c j j j b P -X,.5.%XkXkX|.|.).lXiX*Xa z 1XU g y > > , , 4 : 0 ; 1 p , 4 ; > , : = y x uX>.;.-.f.g.`.{.`.`.",
"C.2.2.[.).z.uX;Xb j N q i V 0 d h b pXzXzXlXkX^.^.,.uX>Xa g c U d @ > > 1 i p > S A V ; > ; 4 > i i = # m k -XfX~.H.C.C.`.{.}.[.",
"J.1.J.).;.,.-Xc m M 0 e V 2 V M N f b 3XpXpXiXuXuX-XP g # = S m = - ; 4 , 1 ; M rXnX1Xm > , > > u y d d y g O iXkX%X].Y.[.{.[.[.",
"2.<.<.=.:.R b N M e e e 2 V e w 0 0 m Z h c v *X;Xx g d - > i : , ; ; 1 4 ; - N eXVX7X= = i y d g U 3XU g s v gXkX}.J.V.V.G.1.<.",
"1.C.1.2.>.pXc M q e < r r e e e e 0 M m N d k n h g = > , > & ; * * & 1 1 ; : N bXVXA = 9 d g I ;XpXpX;Xb k O iX^.3.+.+.+.&.o.o.",
"S.).2._.lXpXc i e e < r e r e w 0 9 # 9 9 6 J 5X1XB = i ; ; 1 $ & $ 1 1 * * % Z mXmXj = 6 s I ,XpX:X,.iX3Xn + uX5.V.7.+.y.V.V.G.",
"~.|.)._.aX-Xj V e r r r r r e 0 9 f f f f b bXnXwXZ u > > ; & & 2 4 & & * * m 1XmXmXN @ y v >XdXfX,.dXgX*Xo W >./.!.'.D.XX@X@X@X",
"].%X}._.>.-Xc M e r r < 3 w e A 5XrXeXeXeXnXBXSXZXNXD m = > ; 1 4 4 & < * # d wXmX7Xd y a pXlX(.c.W yXiXO + iX(.}.}.D.C.S.S.T.A.",
"%X~.-.=.6.-Xl 9 w r r r w p B 5XBXVXSXCXeXZXAXJXZXZXnX5Xd @ 2 4 4 4 4 1 * 9 j bXMXl y g P uX5./.g.:.W W W :XlX%X}.{.OXXX'.C.&.O.",
"D.f.2.;.,.-Xl M w r e e w M C nXCXGXAXBXZXJXCXvXZXDXnXnXwXB , 2 3 4 ; ; = q 2XnX5Xk @ s -X>.4.V.-.k.,.,._ _ ^.`.'.Y.D.oXS.V.V.y.",
"/.D.H.^.:Xv s M 3 r e e e M Z bXGXAXAX4XVXAXNX+ X nXBXZXBX5XN ; $ ; ; : 6 b VXnXj 6 s x :X;.g.V.V.g.z.x.;.;.z.C.C.B.Z.D.U.U.G.E.",
"/.C.5.,.-Xa m e 3 r e w w M K nXJXLXSX4XCXSX<X. . NXBXSXAXBXZ 9 : * = m j bXmX2X6 6 k =XyXv.OXh./.~./.x.v./././.'.Q..X@X.X.XW.Q.",
"D./.>.:Xz g > 1 3 3 3 r e M C eXCXSXJXZXSXKXDX+ n JXAXAXSXBXeX6 # 9 = j bXbXUXc g s h 4X0Xl.c.k.k./ ( / x.c.(./.$X&XR.L.Z.y.y.V.",
"].|.lXpXc u - < 3 3 r 2 w M l eXSXAXSXSXSXSXLXDXDXKXJXJXSXSXBXl 7 9 Z bXFX3X3XU Z Z =X,X:X_ ^ ^ ^ ^ ^ Q ^ / v.x.D.oXV.V.y.V.N.A.",
"_.lXzXI y i - 4 2 w 3 2 w M f eXSXSXSXSXKXSXSXKXLXSXJXAXAXSXBX8Xk 2XeXHXUX3X3XU 8XMXGXIXqX0XT ~ ^ ^ Q ~ Q ^ / / / j.D.U.T.U.A.A.",
"~.5.uXx y , $ $ * r w w w q q 2XBXAXSXSXSXSXSXZXSXKXLXSXAXAXSXnXb BXSXLXUX;X;X;X;XHXLXLXIX0XT ! ! ~ ~ ~ ) ) ^ ^ ^ ( j.j.Z.N.y.7.",
"1.,.pXz i p i $ & e < r r 0 N 1XBXCXAXAXSXSXKXJXSXLXJXLXSXAXAXBX=XZXHXHXFX;X;X;XNXHXHXLXPXqXT T ! ! ~ ~ ~ ) ) ) ^ ) k.j.N.y.V.K.",
"C.jXpXa u p p , 5 r 3 3 2 0 N 1XmXJXCXAXJXAXSXSXJXSXJXLXSXNXCXAXDXHXHXHXFX-X;X;XFXHXPXGXPXvXT T T ! ~ ~ ~ Q T ~ ~ ^ ) / f.A.N.L.",
"~.jX;Xa u p , p < < 3 3 2 0 N 2XVXLXJXCXJXSXLXLXJXJXCXZXZXtXZXKXBXAXFXHXFX;X;X;XGXJXSXSXPXIX0XT ! ! ! ) ) ) ~ T ) Q ~ ^ ( h.A.A.",
"-.,.-Xa y , , , < 5 3 3 e 0 N wXCXSXLXJXJXKXSXSXSXLXGXJXZXZXJXBX<XBXPXFXFX;X;X;XvXLXSXPXPX0X! ! ! ! E ) T ^ ) ) ~ ~ ~ Q ( b.h.8.",
"4.>.-Xz u > - & < 4 3 p e q Z BXSXSXJXLXLXJXAXAXAXAXGXGXGXGXHXmXb bXGXGX4X;X;X;X;XJXJXPXIX9XT T T T T _ ^ ) ) ^ ~ T ~ Q ^ ( 8.8.",
"J.5.pXx y - ; ; < < 3 3 e C eXBXSXKXJXLXLXJXAXSXAXCXLXJXGXJXCXbXh 1XnXCX,X;X3X3X,XPXPXIXsX_ ) T ~ ) E / / ( / ^ ^ ^ ~ ~ Q ( ' 8.",
"C.^.uXx u & ; & 1 $ V V q 5XnXAXZXCXJXLXJXJXSXJXAXAXSXAXJXCXVXK 9 9 j bXFX;X;X;X-XzXzXfXv.^ ^ ) Q Q ( ( ( ( b.b./ ( ^ Q Q ^ ' b.",
"-.;.:Xo d - & 1 - - V e % C 6XMXCXVXGXSXJXLXLXSXSXSXSXAXSXSXnXB % % 9 j 6XbXUXP iXdXx.x./ -.k.( ( ( b.j.b.h.k.j.n.n.' ^ Q Q ' n.",
"+.-.,.P g i , ; ; V ; 1 & 0 d C 6XVXZXNXCXLXDX+ X DXSXAXSXBX6X6 : * > = S bXFXvXdXkXOX@Xf.f.h.h.h.h.oXh.7.8.7.h.7.h.7.( ^ Q ' M.",
"1.).^.iXz u : & * ; - 1 & ; : y d 1XbX<XCXSX<X    vXDXZXAXnXC 6 * $ 1 > y c FXIXdX(.D.T.K.I.L.XXXXZ.S.A.A.D.h.A.oX7.k.b.( Q ( ' ",
"}.|.|.dXP c u > ; ; 2 4 < 1 * % 9 6 Z 6XBXvXDXO *XZXBXBXmX1X6 - > > 4 > = g 4XPXcX>.;.V.s. XXXL.K.V.B.Y.$X$XOXOXA.y.h.n.( Q ( ' ",
"}.].}.jXpXz y > 1 4 1 > 1 5 * 5 7 q C 2XwXtXSXDXSXVXnXbX7Xm = > > p 4 - 9 y b zXcXv.g.S.T.P.K.K.t.V.B.].#X#X%X%X.XT.XXOXQ Q ( ' ",
"D.D.D.(.dX-Xc u 4 1 1 1 ; 0 5 7 7 J J 7 rXeXDXZXGXCX6X1XM - > ; i , > = s v pXzXcXxX%X#XXXs.V.Z.N.U.R.#X&X%X%X%XD.W.Q.D./ / / b.",
"f.S.$X%XkXdXI g = ; & & % D J t t G F 8 8 2XBXNXVX6XB = : - ; ; , > = g z ;XyXfXxXcX(.D.Z.P.oXXXXX.XOX+X&XOXv.n.OXV.7.j./ ) l.m.",
"}.].%X|.`.jXiXP g @ * ; * q J F F F F 8 8 f l 5X5XC = 0 $ & 1 1 : 6 s z :XE ;./.xXxX%XD.S.R.T..X$XoXj.n.M.l.l.hXhXx.j.n./ ^ n.m.",
"C.`./.).`.[.jXuXP h d = % 5 7 F F F F F H D N D A @ : - - - , i m h b >X,.g.g.'.xXxXxXOXR.Q.D.R.f.j.b.M.` l.9X9XhXm.hXm./ l.+X+X",
"D.].(.`.E.G.<.:.R -Xc y 6 7 7 F F F F J V 0 % 0 = > ; ; i i u B 8X<XW uXz.g.R.#XxXcX%XD.A.B.U.C.g.+Xc.l.sX9X9XqX9XsXl._ / c.xX+X",
"Y.`.`.H.t.%.O.o.;.,.>Xx a k H G G F G 7 q * - * > , - i m m g z L -XdXc.g.D.Q.g.z.%Xg.D.A.B.!.D.g.c.l.sX9X9X9X0X9X9X_ l.lXxX%X|.",
"E.U.!.U.O. .O.+.B./.^.dXiX*X<Xn 8 H 2X8 % % : - = % = = y c x P uXjX|.].R.D.S.XX{.}.D.R.A.f.Z.S.#Xm.hXfXsXsXsXhX9XsX` hXxX(.(.OX",
"!.Q.E.7.y.y.y.K.I.T.'./.^.>.:XT O v 2Xn s 6 y d y j k h z ;XiXdXjX(.|.].D.'.XXXX#X!.C.B.7.A.T.T.D./.xXhXhXM.` hXM.` sXsXhXc.g./.",
"R.V.y.s.d.a.i.I.E.P.F.I.V.-.-.:.E E iX*XO v x v v *X>X:XyXyXv.kX(.`.}.].#X].'.R.D.D.D.Z.Z..X@XR./.OX+X(.x.x.m.m.M.hX9XsXhXx.j.D.",
"V.V.K. XI.i.y.i.I.F.r.i.r.r.O.N.Z.g.z.,.:X:X>XiXgXfXfXv.z.g.(.|./.$X#X%X%X].#X{.#XXXXX.X$X@X@X#X$X@X].]././.+X+Xl.l.sX9XhX(.OXR.",
"!.E.F.i.%.#.%.F.&.y.%.r.r.r.8.r.7.+.g./.^.jXlXkX^.g./.'.].'.].%XR.@X#X@X@X@X.XQ.L.U.Q.R.R.{.}.{.'.'.@X#X$X(.c.l.sX9X9XsXm./.XXXX",
"G.P.&.%. .%.y.y.&.O.y.i.a.r.8.s.y.y.U.Q.R.].OX].g.-.B.U.`.{.%X$X#XD.S.T.E.E.E.E.L.R.{.{.{.].'.{.Y.R.R.XX@X+Xc.fXsX9XsXm.n.j.D.L.",
"G.P.y.%.%.y.t.y.G.y.I.I.L.i.L.P.K.P.W.@X@X#XXXD.B.V.{.#X#X#X$X/.#XS.V.B.L.L.B.L.Q.!.Y.[.[.}.H.{.@XU.K.N.Z./.x.l.sXsXl.m./.A.A.t.",
"P.F.O.%.i.K.W.I.E.L.!.E.I.I.P.P.I.P.P.W..XT.A.N.U.R.#X@X#X$X$X$X'.S.B.U.T.L.L.W.{.U.Y.{.{.!.E.Q.W.P.a.K.s.A.h.c.c.m.n.OXoXT.Z.L.",
"7.O.O.%.I. XW.W.L.I.E.I.i.i.a.i.i.F.F.y.N.N.N.A.S.T.{.{.@XXX.X$XR.{.R.R.R.R.R.@XY.B.S.U.E.P.a.i.r.r.u.u.r. .7.D.'.OXoXoXT.XXP.P.",
"O.O.y.t.P.XXW.P.N.I.F.%.*.#.%.#.#.%.&.y.t.S.oXT.A.f.D.@X@X@X.XXXQ.#X{.Q.Q.@X#X@X@XS.L.I.a.i.r.9.0.0.0.0.0.0.r.s.t.Z.A.A.XXXXL.K.",
"y.r.F.I.I.I.s.y.&.K.i.#.X.#.#.#. .i.G.E.@X#X@X$X.X@X@X@X#X@XT.XXQ.U.L.U.Q.@XXX.X.XI.a.s.u.0.9.#.9.9.e.e.q.#.w.0.r.s.K.A.XXXXN.y.",
" .%.i.i.&.%.O.+.F.i.&.%.#.[ #.#.r.K.Q.#X&X&X&X&X&X@X@XQ.E.L.I.A.L.L.T.T.L.K.t.a.I.s.u.e.0.9.q.q.9.q.e.e.e.w.w.#.0.s.K.I.XXP.Z.B.",
"O.r.a.i.%.%.y.G.Q.L.y.t.i.y.3.G.A.T.@XOX#X]./.R.@X XK.K.y.s.K.y.s. XP. Xu.r.r.u.p.e.w.q.9.9.q.q.q.q.w.e.w.w.w.u.u.a.P.XXXXQ.U.U.",
"F.G.I.&.&.G.!.@X#X@XT.U.G.F.E.E.XX$X$X$X$X$X$X@XZ.y.%.r.r.r.r.r.I. X Xa.u.u.p.p.w.w.w.e.e.q.q.q.9.9.w.0.0.u.a.a.P. XP.T.T.S.G.U.",
"!.!.E.G.E.Q.@X{.#X@X.XXXK.A.D.XX@X@X#X$X#X#X{.!.K.i.u.%.r.0.r.p.s. Xp.8.0.w.u.q.9.0.w.w.e.w.9.9.9.0.u.r.r.u.K.a.I.K.K.F.N.N.B.E.",
"[.E.E.E.E.E.!.'.#X@XT.A.t.y.A.!.R.{.Q.{.R.!.E.G.F.a.u.#.r.p.s.a.a.d.p.0.0.e.w.#.9.0.0.0.w.0.0.0.u.p.a.u.i.K.K.t.N.t.F.F.t.N.P.W.",
"G.G.F.i.%.&.&.B.T.B.%.r.r.y.L.E.B.G.B.Z.T.L.Z.K.s.r.%.r.a. X X X Xa.u.0.0.e.e.u.u.i.s.p.p.p.p.p.a.a.a.I.W.W.L.K.t.i.i.F.F.I.P.K.",
"E.I.i.y.%.%.+.+.F.F.%.%.%.i.I.E.U.V.N.N.P.L.I.K.y. .O.a. X X.X.XXXs.r.r.u.u.p.d.d. X XK.a.u.e.p.u.y.F.I.W.E.P.P.I.t.&.i.F.P.K.y."
};
