/* XPM */
static char *_7ed68d961d24107b0ad95c7b5da5465aNLTRokfHlxN8Pa0[] = {
/* columns rows colors chars-per-pixel */
"64 64 256 2 ",
"   c #483225",
".  c #584737",
"X  c #716564",
"o  c #3C3421",
"O  c #BA3C39",
"+  c #B63D30",
"@  c #D72D2C",
"#  c #CB3A2A",
"$  c #DB332C",
"%  c #D8372B",
"&  c #DA2E36",
"*  c #C93938",
"=  c #D43433",
"-  c #DB3434",
";  c #D43A34",
":  c #D83839",
">  c #CD273B",
",  c #E5362E",
"<  c #E23434",
"1  c #E83A37",
"2  c #F43E38",
"3  c #E42C30",
"4  c #D2321C",
"5  c #B7463A",
"6  c #B75330",
"7  c #AE5A26",
"8  c #D8473A",
"9  c #CB4735",
"0  c #EC4239",
"q  c #E74437",
"w  c #F34339",
"e  c #CC6329",
"r  c #B73E44",
"t  c #C53C43",
"y  c #D73A42",
"u  c #D23D53",
"i  c #E13641",
"p  c #985358",
"a  c #AB4749",
"s  c #B84647",
"d  c #A75759",
"f  c #B65858",
"g  c #B0514F",
"h  c #976A5A",
"j  c #B36559",
"k  c #995866",
"l  c #8A5A69",
"z  c #AE5762",
"x  c #926A70",
"c  c #AA6A6C",
"v  c #C64645",
"b  c #D84944",
"n  c #C75648",
"m  c #CB5255",
"M  c #E64342",
"N  c #CF6559",
"B  c #CD716C",
"V  c #E06A68",
"C  c #F8945B",
"Z  c #FA8E71",
"A  c #FEB866",
"S  c #F7B078",
"D  c #EBA266",
"F  c #FFC173",
"G  c #68798A",
"H  c #5A7E9E",
"J  c #3B7FA6",
"K  c #917187",
"L  c #A57C8C",
"P  c #D17885",
"I  c #2E94BC",
"U  c #259EBC",
"Y  c #68BE9D",
"T  c #71B993",
"R  c #4D8FB1",
"E  c #7395B3",
"W  c #6EB9AA",
"Q  c #57A1AE",
"!  c #5EC79A",
"~  c #67C39D",
"^  c #7CC49F",
"/  c #5CC5A7",
"(  c #5AC6B8",
")  c #66C4A5",
"_  c #6DC7B6",
"`  c #1B92CC",
"'  c #2798C7",
"]  c #289BD3",
"[  c #3499C9",
"{  c #2BA7CD",
"}  c #33A4CB",
"|  c #2BA6D7",
" . c #37A8D7",
".. c #28B7DB",
"X. c #39B7DB",
"o. c #15BDE9",
"O. c #38AAE6",
"+. c #28BAE5",
"@. c #38BAE4",
"#. c #2CAEE2",
"$. c #1BAFDA",
"%. c #46ABDA",
"&. c #46B7DB",
"*. c #58B8DB",
"=. c #52ADCE",
"-. c #68BAD9",
";. c #70ADCD",
":. c #48ADE4",
">. c #49B8E6",
",. c #53BDEA",
"<. c #55B8E5",
"1. c #4BBBF3",
"2. c #56BEF4",
"3. c #52ADE2",
"4. c #65BBED",
"5. c #5894C3",
"6. c #3AC7DD",
"7. c #32C7D9",
"8. c #18C7EC",
"9. c #1AC6F4",
"0. c #0FCAEE",
"q. c #29C5E9",
"w. c #33C4EB",
"e. c #3BCBEC",
"r. c #39C7E6",
"t. c #39D3E7",
"y. c #28CAF3",
"u. c #39C9F4",
"i. c #28D3F7",
"p. c #39D5FA",
"a. c #27D2EF",
"s. c #37E6FF",
"d. c #57C9C7",
"f. c #49C7DC",
"g. c #59D6D8",
"h. c #52CCD0",
"j. c #67C7C6",
"k. c #66C8D9",
"l. c #78C6DA",
"z. c #69D7D8",
"x. c #78D7D8",
"c. c #78D0C8",
"v. c #44C4EB",
"b. c #43CCEB",
"n. c #4ACCEC",
"m. c #49C7E6",
"M. c #53C3EB",
"N. c #53CCEC",
"B. c #5ACBEB",
"V. c #57C8E7",
"C. c #49D5EB",
"Z. c #53D3EC",
"A. c #59D5E9",
"S. c #43CCF3",
"D. c #49CAF5",
"F. c #5DCCF4",
"G. c #5CCBFD",
"H. c #56C5F3",
"J. c #44D3F4",
"K. c #4BD4F4",
"L. c #4CDAF4",
"P. c #4CD3FB",
"I. c #4CDBFC",
"U. c #44D8F8",
"Y. c #53D4F4",
"T. c #5BD3F3",
"R. c #53DBF4",
"E. c #5CDAF4",
"W. c #54D5FB",
"Q. c #5CD4FB",
"!. c #53DCFB",
"~. c #5CDCFC",
"^. c #65C9E9",
"/. c #76C8E5",
"(. c #67D7E9",
"). c #77D9E7",
"_. c #65C9F6",
"`. c #62D4F4",
"'. c #63DBF4",
"]. c #63D5FC",
"[. c #6BD4FC",
"{. c #63DBFC",
"}. c #6BDCFC",
"|. c #6BD9F4",
" X c #73DCFD",
".X c #76D8F5",
"XX c #74CDF2",
"oX c #5CE1FD",
"OX c #57E3F8",
"+X c #53E2F0",
"@X c #64E2FD",
"#X c #6AE2FD",
"$X c #68E5F7",
"%X c #73E3FC",
"&X c #7AE3FB",
"*X c #78E5F7",
"=X c #6FE6EE",
"-X c #79E0D9",
";X c #99828D",
":X c #AB8F92",
">X c #9096AF",
",X c #B091AF",
"<X c #8BACB9",
"1X c #AFADB7",
"2X c #BDAB9D",
"3X c #C58F97",
"4X c #EC948B",
"5X c #FAAF97",
"6X c #CB93AA",
"7X c #CBADB0",
"8X c #FCB5AA",
"9X c #FFBCB4",
"0X c #F2A9AA",
"qX c #D49E96",
"wX c #8ED2BA",
"eX c #ACCDB7",
"rX c #FFCAB8",
"tX c #F9D3BD",
"yX c #8FB4CA",
"uX c #ABB9C8",
"iX c #B5B8C9",
"pX c #ABB3D1",
"aX c #8EB1D8",
"sX c #DDB7C5",
"dX c #89D5C7",
"fX c #89C6D6",
"gX c #97C9D7",
"hX c #8DD1CD",
"jX c #A8C7D6",
"kX c #B0CDCE",
"lX c #85C8E4",
"zX c #97D5E7",
"xX c #87D8EE",
"cX c #A7D6E9",
"vX c #8AE7F4",
"bX c #AEE5F8",
"nX c #BEE4CD",
"mX c #CFC9CE",
"MX c #FDC9C6",
"NX c #FED7C8",
"BX c #FED9D5",
"VX c #E9D4CB",
"CX c #FCE3CB",
"ZX c #FFE4D3",
"AX c #FEECDC",
"SX c #FAE8D5",
"DX c #FDF3DC",
"FX c #FAF4DA",
"GX c #E8E9D5",
"HX c #F3D8E4",
"JX c #FCECE4",
"KX c #FEF4E2",
"LX c #FEFAE4",
"PX c #FAF8E8",
"IX c #EDF4ED",
"UX c #CEEADF",
/* pixels */
"| O.1.1.2.2._.2.2.1.2.1.| ] [ O.:.@.>.>.N._.H.^.4.4.[.4.4.4.3.%.' ' [ :.:.%.O.:.:.%.3.3.<.,.,.>.>.X.[ I ' @.@.| | %.M.1.O.O.O.@.",
"] ] O.1.2.2.G.2.G.1. .' '  .:.:. .] @.M.^.M.,.3.<.<.4.*.3.;.5.R J J 5.3.3.3.<.<.:.[ [ %.<.3.>.>.&.} U } &.v.1.@.M.>.1.1.O.#.X.X.",
"` ` ` O.:.O.' ' ` I ` } <.H._.H.2.:.3.<.3.%.%. .[ 3.-.aX>X>X>X>X1X,XpXpXaXaXaX4.4.4._._.[.[.[.[.].}.T.B.^.V.>.N.H.:. .| | #.@.@.",
"] ` ` ] ' ` ` ` ` [  .M.G.2._._._.4.4.2.2.3.%.3.=.;.yX,Xx k p k z k k l K L pX>X;.-.4.XXXX-.-.-._.`.T.^.(.V.f.&.&.:.,.m.@.@.D.D.",
"` ` ] ] ] |  . . .>.M.H.,.>.3.H.G._.G._.<.%.5.E ,XL k z r t O t t t t v > a z l 1XyXaXfXlXlXlXlX/.-.B.{.|.`.|.'.G.G.`.Q.Z.Z.~.Q.",
"] #.| | :.2.1.>.1.1.H.,.>. .} %.:.:.O.:.3.;.yX,Xk z s : = $ : = @ - - $ > > t r p :X1XkXiXiXiXiXpXaX-.^. X|.N.>.>.M.`.T.m.m.v.1.",
"O.1.G.H.H.H.,.>.:.M.H.>. .X.O.,.:. .] [ 5.E L k r t ; ; % % - - y : - = ; = > b s s f z f f f j c ,XgX/. X`.&.>.r.X.{ { { | | ] ",
"@.G.G.H.1. .[ [  .H.<. . .%.1.M.2.3.[ [ K K p r u > = = - $ 1 < - - - $ % = < 1 q q b b 8 q 8 8 s c 2XgXXX_.G.H.D.@.| { { | ] | ",
"G.W.H.>.] I I %.&.:.%.%.,.F._.B.V.=.I G K p t : - - : ; < 3 3 , 1 3 $ $ % , w 2 2 2 2 q q q q q 8 n c 1XaX_.G.W.u...#.v.v.H.G.H.",
"G.1.] {  .>.1.M.^.,.<.^.XX[.[.[.}.-.<XL z t & < < = : q < 3 2 3 3 , , w 0 1 w w 2 2 2 2 q q q q 0 b g x R [ { | X...v.~.Q.].[.[.",
" . . .:.>.>.M.H.H._.[.[._.[.[.^.*.E >Xp O : < , - : , % w q 2 1 w , w , 2 2 0 w w , 2 w q q 2 2 1 M n c >X=.M.b.b.C.E.#X[.|.XXXX",
",.,.M.G.F.H.M.,._.[. X X[.[.M.%.I H l g > $ @ $ < @ , 4 9 q 0 M w w w w w w q q w w w , q , w w M M b d 1Xz.].W.E.E.E.{.|.}.XX.X",
"F.[.[._.F.`._.[.[.].].[._.M.X.[ R >Xp t # % 8 % = , $ % 8 8 q 0 q , 1 1 w 0 q q q q q , q , 0 w 1 M 8 f kXfX`.B.&.f.f.n.T.`.[.|.",
",.,.V._.[.`.M.`._.,.<.&. .' } [ ;.;Xf O 9 q Z 8 $ < % % N 8XN v b q b 8 q 8 8 8 e 8 8 q q w q 0 0 M q f 1Xl.*.V.g.Z.n.H.].}.].[.",
"M.,.M.G.M.X.M.].M.M.&.%.[ } X.-.uX2XD 7 7 C C 8 % = * v rXNXtXB j 9 n n n n n N V B N N 8 q q 0 w 0 n j yX/.XX[.%X#X~.~.Q.{.].Q.",
"M.%. .X.{ &.G.].].F.V.M.B.B.`.fX1Xh S A A A e # # = t N NXFXCXCXrX5X4XS 5XrXtXtXCXNXNXrXV q q q 0 8 m x yXXX X%X}.E.H.D.v.M.>.X.",
"v.H.&.f.B.]. X}.{.v.v.H.M.&.=.dXh 7 F A A A e e 9 + 5 rXZXAXFXFXDXSXCXCXCXFXDXDXJXKXAXZX8X9 8 1 q b z ,XyXV.F.W.T.m.X...@.@.{ } ",
"H.F.f.B.#X}.`.1.>.@.X.&.&.=.l.gXh qXF A A A A C e 9 4XNXDXDXFXFXDXLXDXFXFXFXFXLXPXJXKXZXrXg 8 8 9 g L pX/.m.Z.n.m.m.@.X.@.b.n.N.",
"_. X`.'.{.>. .I U { X.&.h./.zXkX8XS A F A A C C N B NXZXDXFXPXPXDXDXCXFXFXFXDXFXAXJXDXAXNXg O b m x pXxX^.!.m.N.`.{.E.!.~.@X#X#X",
" X X].T.n.X. . . .X.{ } =.l.gX:Xh 7 7 C A e 7 e 5X0XqXVXDXPXLXPXLXLXFXFXFXFXDXGX7X7XBXAXtXg 9 n d 7XgX^.Y.D.oX{.}.].Y.Z.P.Y.N.T.",
" XB.>.6...@.D.n.W.R.T.'. XzXjXx 6 # + e D 7 6 rXrXCXZXAXFXFXKXKXDXFXDXFXFXDXDXFXDXAXAXrXNXj 9 v k >X;.&.V.E.@X$X'.|.'.@X~.D.X.X.",
"XX*.f.X.X.r.D.n.C.Z.Y.B.^.zXkXk + 8 % 8 Z 6 5XtXSXAXKXKXPXLXKXLXLXPXDXDXFXFXFXDXDXKXJXAXCXj 5 a l >X-.B.B.Q.A.E.A.`.T.Q.Y.v.r.f.",
"XX^.T.Y.D.K.P.Y.Z.C.f.V..XcXmXk O & = # 8 j CXFXDXSX2XVXFXFXDXFXLXFXDXDXDXFXFXVX2XtXJXKXDXtXZ p x <X).(.*.<.N.Z.V.B.F.T.T.Z.Z.A.",
"(.`.V.m.v.v.r.b.Z.R.V.}.&XcXmXc s > = 8 Z rXCXDXGXX o X FXKXDXDXLXLXDXDXFXDXGXX o X VXDXDXCX5Xd :XhX).B.XX^.A.E.{.].}.#X#XE.+X+X",
"^.(.V.f.v.v.b.Z.C.m.B..X&XcXjXx s * : ; V 8XZXJXJX:Xo . GXLXDXFXKXDXKXDXFXLXSXx   . SXDXSXrX4Xf 7XjXxX X X%X'.~.#X#XOXZ.m.6.6.t.",
"'.$X'.#X#X~.n.C.6.f.V.|.*Xl.<X;Xa * = * t N 8XBXAXBXtXGXPXFXFXLXFXPXAXLXLXKXPXAXNXVXVXAXMXD n a x mXzX&X&X#X#XoX'.~.C.6.6.6.6.t.",
"$X$X#X#X{.Z.m.R.L.f.&.f.V.-.yX1Xd * : - - * N rXNXVXGXDXKXKXPXPXKXKXSXKXFXLXFXKXSXGXNXNXB t y r k mXjX/.^.N.C.K.Z.Y.R.L.W.W.I.I.",
"f.C.$X@Xm.X.m.R.C.A.(. X&X&XvXmXd * y - < : O 4XMXZXAXFXFXFXJXJXKXJXPXKXFXDXDXAXSXCXNX8Xv y y > s k iXaX-.&.m.r.X.n.C.L.P.u.@.S.",
"6.f.'.}.Y.M.T.'.'.'.#X&X%XvXvXcXk a b y < : # 9 5XNXAXDXDXLXAXKXAXGXFXDXLXDXFXDXLXSXrXs * - : : 9 a l ,X<X=.%.m.W.W.J.e.e.w.e.P.",
"n.Q.#X#X#XQ.Q.}.%X=X&X%X X%XvXgX7Xd m y = , ; * n 4XMXZXCXDXKXJXSXtXVXAXDXFXDXSXCX8Xn O : = = % # 9 d X G R -.^.].D.@.7.w.r.J.J.",
"W.~.~.T.E.Y.F.}.$X$X%X*X}.|. XzXiXl a v - 3 $ ; * 5 N rXNXZXZXFXDXSXDXDXDXCXCXrXB b * < - = < - & V z x X G hXxX|.N.r.r.t.U.C.p.",
">.v.m.m.n.T.`.`.$X$X$XE.'.(.A.xXyX,Xp m y < < - = * * 5 f D rXBXCXLXDXCXNXqXj s t & 1 @ < < 3 3 & u 4X6X7X2XR fX.X$X+X+X+Xt.C.t.",
"m.b.m.n.W.{.].].~.$XA.m.m.Z.Z.^.aXyXK 0Xm : < < - % - # 9 5 f c 2XCXVX3Xj g 5 * - & , , 3 3 3 & i y v P 7XjXgXj.).).A.L.e.7.w.7.",
"J.!.!.H.G.].{.#XE.E.n.n.R.~.E.`..XzX<X7Xz t & 3 < = $ % # s 4XBXCXAXAXBXCX5Xs : : 1 $ $ 2 3 @ 1 < & t z :XuXaXk.=.=X@Xb.r.7.r.e.",
"P.P.W.Y.T.T.$X'.@X@XoXE.'.E.`.[. XxXzX>XL r v < & < - : v j HXJXAXFXKXKXKXMXB s * = $ % @ $ 1 - : - & t p ,XW -.).#Xn.w.t.t.C.OX",
"v.@.v.Z.N.f.f.f.+XA.Z.Y.'.T.`.`. X.X).gXiXk a t & : y r m MXHXJXKXPXPXJXJXJXMXf v * % % < $ $ 3 - = = = s c >Xl.|.T.@.7.t.OX$X$X",
"| X.m.H.N.f.Z.'.T.Z.T.'.].}.#X#X#X'.|.).gXuXp a v * O m MXHX6XsXHXHXHXHX7X7XBXMXg + t = $ $ $ < % - , 9 8 + x yX-.B.7...t.+XOX$X",
"n.W.R.oXT.Z.E.E.'.T.].{.{.{.'.{.n.n.E.V.).gX1Xk a a c MXHX6XL ,X,X,X,X,X,X3XqXMXMXB v t ; % % ; % % 4 $ 4 s k 1XfXf.7.t.+X+X+XC.",
"E.#X~.~.@X@X#XQ.[.].'.}.{.E.W.e.7.r.Y.$X'.).jXsXL 7XBXHXsXL ,X6X,X,X,X,XL 6X3XsXBXBX0Xz m v t * v # = % & * a x yXf.f.OX+X$XOXL.",
"A.$XE.{.@XE.T.B.V.T.{.{.Y.J.u.q.w.J.Y.A.E.%XbXbXHXIXIXmXK ,X,X,X,X,X,XpX6X,XP z 0XMXHXMXMX4XB m f m O = - - t k jXz.=X$X=X'.R.!.",
"T.T.T.T.{.{.T.m.&.Z.#XOXP.p.u.u.U.P.m.(.%X.XvXbXbXbXzXgXyX>X1X,XHXHXHXHX6X6XB s m m 8XMXBXBXVX7X7X0Xm t i & y g ,XyXl.`.=X(.R.Z.",
"f.B.}.%X%X#X#X#X~.n.b.u.w.q.y.+.w.b.(.vXA.*XvXxXxXxXz.k.yXjXIXIXHXHXHXJXKXBXL g O t s N 5XNXVXmXmXMXP u i & i s K ;.-.^.).).%X&X",
"`.}.%X}.`.E.~.oXI.q.+.+.+.+.+.w.e.b.m.V.E.OX#X#X'.{.+XA.).cXIXIXIXPXPXJXFXFX:Xd g a 5 O s n f P 0X4Xm i i i : r l <Xl. X*X*X%X&X",
"B.|.].`.`.{.W.S.+.+.o.y.y.u.J.U.I.!.R.C.@XoXoX!.+XZ.L.+X(.zXUXIXPXPXPXPXFXGXeXeX2Xh p g 5 s r s a u > i i & ; s l uXzX*XvX*X*X%X",
"`.|.{.'.Y.n.@...+.y.+.+.p.I.I.!.L.C.J.L.K.I.U.e.q.q.t.6.d.c.kXnXIXGXIXUXUXeXhXjXyXyX1X;Xh a t : * # $ - - - ; O x jXxXvX*X.XvX&X",
"`.E.'.Y.r.....+.u.p.P.U.!.OXOXL.e.r.b.I.OXU.w.w.+.+.7.7.h.( ^ wXeXnXnXeXwX^ ;.j.k.k.l.yX1Xc g * # $ $ 3 % - ; s x jXxX X*X X&X#X",
"T.Q.Q.J.7.$...+.S.P.W.oXoXI.U.e.q.u.b.L.b.r.w.p.y.q.t.t.g.! Y ^ ~ wX^ Y ^ Y _ ).^..X(.k.-.<X:Xd r = - < - = * g 1XgX.X X X$X'.$X",
"{.~.K.r.q.q.u.u.W.W.!.oXK.J.e.....p.C.6.C.C.J.p.p.s.+Xg.( / ~ ~ ! ~ T ~ ) ) ( z.*X(.V.V.=.fXuX:Xg y i - = ; 9 p 1Xl.^.].#XZ.g.A.",
"!.v.r.e.U.p.S.P.!.P.J.I.u.a.+.q.r.J.C.t.f.6.@.v.I.OXC.g.( ! ) ~ ~ ~ ) Y ! ! / d..X^.(.(.j.xXjX7Xz r i @ - * s x <Xz.|.@X@X'.Y.Z.",
"n.b.J.I.I.w.@.u.P.u.q.u.q.q.+.r.m.(.+Xg.f.f.T.{.~.L.+Xg.d./ ~ ~ Y Y ~ ) ) ! / ( XX XXX/.R aXfXiX6Xu t & - O p iXl.'.OXoX@XOX~.!.",
"T.R.S.u.+.+.+.p.u.q.+.q.y.7.7.6.(.x.x.hX).|..X}.~.m.R.(.j._ ) ) ^ ~ ) ) ) / / ( k.XXfXQ hXfXlXcX6Xg t = t z K pX.X~.R.L.L.+XOXOX",
"n.Y.w.#.$.+.y.w.q...w.u.J.r.6.f.x.hXdXhXhX*X%X@XK.7.Z.A.x._ W Y Y ~ ) ) ) ! / ( k.XXfXR jXjXpXiX3Xg r t z l pXxX'.I.L.b.C.L.C.C.",
"b.L.w.+.+.y.u.r.b.6.Y.W.P.S.K.A.x.dXdXdXhX).$XL.e.J.~.$X)._ ) ~ Y ~ Y W _ ) / z.)./.lXE X ,X7X3Xg 5 s a x pX-.,.e.p.L.I.L.U.b.e.",
"I.t.+.+.w.P.I.P.R.N.'.'.B.n.W.R.-XdXwXwXhX).g.f.C.E.#X%X).j.) ) ~ ^ ~ ~ ) ) W ).|.^.).fXG X X l p p x X yX-.@.+.p.p.I.I.OXI.K.K.",
"q.+...w.P.OX!.E.A.k.(.k.h.f.C.f.-Xc.wXwXdXj.g.g.A.A.(.(.-X-X) / ) ) ~ ~ ) ) j.x.(.V.`.^./.E G G X R <X;. .#.9.o.i.i.U.+XR.!.W.W.",
"..+.w.e.W.!.~.Y.f.z.x.z.j.k.h.&.d.c.dXwXdX-Xz.g.g.f.`.).).-X/ ) ) ~ ! ~ / _ -X).$XZ.C.W.N.<.5.=.=.=.&.X.y.0.9.0.i.s.U.L.OXOXP.P.",
"q.w.p.I.P.P.S.@.&.).-X_ dXdXx.j.W c.wXdXc.vX=X=X$X}.}.*X=X_ / ~ ~ ! ~ / / ( =X+XOX+Xp.p.u.+.#.#.#.+.9.a.0.8.9.8.9.p.J.K.R.!.J.u.",
"..#.e.e.q.+.#.@.n.z.x.dXdXwXdXdXc.hXdXwXdXvX*X*X#X$X$X=Xz.( / ! ~ ! / ( d.7.7.C.t.t.a.a.o.o.o.o.9.0.i.a.0.0.q.8.9.y.K.W.~.!.P.p.",
"..@.b.r...+.@.U.Q.(.z.c.dXdXwXhXhXdX_ dXvX-Xg.$X#XE.f.h.( ! ~ ~ ! / ( d.f.7.a.a.i.a.8.9.0.0.0.0.0.9.8.8.0.8.8.q.a.p.R.~.oXOXU.J.",
"m.K.J.@.@.D.I.oX@X(.x.x.dXdXdXhXhXhXdXj.-X-X=X(.A.h.h.d./ ~ ~ ) / / d.A.r.a.i.a.a.8.9.9.9.0.0.0.o.o.a.8.8.8.i.p.U.I.!.E.I.J.C.C.",
"Y.E.Y.b.W.~.{.@X#X$X$X(.(.z.z.).x.).).j._ ( j.( d.=.( / / / ! / ( h.f.r.q.a.i.0.8.8.9.y.9.8.0.0.o.9.i.8.y.y.p.U.U.U.S.D.u.e.J.R.",
"R.Y.W.W.W.W.W.{.@XOX+XC.f.f.g.(.=X=X=Xz.z.( ( / ( ( ( / ! ) ( d.g.g.t.q.8.9.0.o.0.0.o.o.y.8.9.9.9.i.p.u.u.p.J.e.b.u.u.S.u.S.Y.W.",
"S.u.D.u.@.X.X.f.Y.L.6...X.m.m.A.f.f.n.g.g.z.g.( h.( h.d.( g.(.+XR.C.q.8.0.i.9.9.8.i.i.i.i.i.i.i.p.p.p.J.I.!.Y.K.S.u.S.S.S.P.W.P.",
"I.U.D.w.....X.X.C.b.....q.r.N.A.C.b.f.C.A.g.d.g.7.U } h.z.z.$XoX+Xt.q.8.a.i.p.s.s.s.s.p.p.i.9.a.i.i.e.U.R.Y.W.Q.P.u.@.u.J.I.Y.@."
};
