/* XPM */
static char *_858c5a489af4be4f5dd2d4647627d6fVK1GgcHTLKcsrafi[] = {
/* columns rows colors chars-per-pixel */
"57 64 256 2 ",
"   c #57513B",
".  c #756C54",
"X  c #747667",
"o  c #636551",
"O  c #805E42",
"+  c #887A5C",
"@  c #987B5A",
"#  c #856C57",
"$  c #877B67",
"%  c #947D67",
"&  c #8C7E73",
"*  c #748473",
"=  c #67836A",
"-  c #99805E",
";  c #888269",
":  c #93856B",
">  c #9A8568",
",  c #8D8374",
"<  c #888775",
"1  c #938373",
"2  c #9B8B73",
"3  c #93857A",
"4  c #9C8C7B",
"5  c #968977",
"6  c #9B927B",
"7  c #88947D",
"8  c #A48A69",
"9  c #A3916C",
"0  c #A38D73",
"q  c #A38C78",
"w  c #A49475",
"e  c #A4957C",
"r  c #A9977A",
"t  c #B39679",
"y  c #1A91BA",
"u  c #3DA7B9",
"i  c #788E82",
"p  c #72968E",
"a  c #53B0BA",
"s  c #77A9A7",
"d  c #73AEB1",
"f  c #77A19F",
"g  c #70C2BD",
"h  c #1B90C8",
"j  c #2697CC",
"k  c #289CD3",
"l  c #309CDA",
"z  c #29A6CA",
"x  c #35A5CA",
"c  c #2CA6D5",
"v  c #34ACDB",
"b  c #37A8D8",
"n  c #2AB8D9",
"m  c #32BCDD",
"M  c #38B5DA",
"N  c #29B3CF",
"B  c #15BBE8",
"V  c #3AACE4",
"C  c #29BAE4",
"Z  c #3BBBE3",
"A  c #39B7E6",
"S  c #1BB2CD",
"D  c #49B2C6",
"F  c #5AB8C8",
"G  c #44ACD8",
"H  c #44B3DC",
"J  c #48B8DA",
"K  c #55BCDA",
"L  c #40A8CF",
"P  c #64B8C6",
"I  c #77BAC7",
"U  c #68BAD4",
"Y  c #43B4E4",
"T  c #4BBBE3",
"R  c #4CBDEC",
"E  c #46B8E8",
"W  c #55BBE7",
"Q  c #49BDF1",
"!  c #56BEF2",
"~  c #47ADE3",
"^  c #29C2DB",
"/  c #37C3DC",
"(  c #19C5E9",
")  c #0DC9F6",
"_  c #17CAF4",
"`  c #13CAF1",
"'  c #27C7E6",
"]  c #3CC4E4",
"[  c #3ECCEB",
"{  c #38C7E6",
"}  c #3BD4EB",
"|  c #27CBF4",
" . c #37CAF2",
".. c #2AD3FA",
"X. c #3AD5F8",
"o. c #3BE1FF",
"O. c #1CC1DD",
"+. c #48C5DC",
"@. c #57C5DA",
"#. c #5FC6CB",
"$. c #69C7D8",
"%. c #78C9D8",
"&. c #7BD2DA",
"*. c #6FC8D0",
"=. c #43C3E4",
"-. c #4BC4E3",
";. c #4CCBE3",
":. c #44C3EB",
">. c #4CC4EB",
",. c #43CDEB",
"<. c #4CCCEC",
"1. c #43CBE2",
"2. c #53C2EC",
"3. c #5BC3ED",
"4. c #53CCEC",
"5. c #5CCCEC",
"6. c #56C7E5",
"7. c #44D3EE",
"8. c #4BD4EC",
"9. c #54D3EC",
"0. c #5AD4EC",
"q. c #5BD6EA",
"w. c #4CCCF3",
"e. c #46C9F4",
"r. c #54C3F4",
"t. c #53CDF2",
"y. c #5AC8F7",
"u. c #45D5F3",
"i. c #4BD3F3",
"p. c #4DDAF4",
"a. c #4DD3FB",
"s. c #4CDBFD",
"d. c #44DAF9",
"f. c #54D4F3",
"g. c #5BD4F4",
"h. c #53DBF4",
"j. c #5CDAF5",
"k. c #5CD4FA",
"l. c #55DBFB",
"z. c #5CDCFC",
"x. c #53D4FB",
"c. c #64C8EA",
"v. c #76CDE8",
"b. c #68D5EA",
"n. c #77D7E8",
"m. c #63CCF3",
"M. c #67CAF8",
"N. c #63D4F4",
"B. c #64DBF5",
"V. c #6CD3FD",
"C. c #63DCFB",
"Z. c #6BDCFC",
"A. c #68D7F6",
"S. c #73DDFC",
"D. c #74D7F7",
"F. c #5CE3FD",
"G. c #58E1F9",
"H. c #44E3F9",
"J. c #64E3FE",
"K. c #6BE3FD",
"L. c #69E6FA",
"P. c #74E5FC",
"I. c #64F1FF",
"U. c #968B81",
"Y. c #9A9786",
"T. c #8D988F",
"R. c #A29482",
"E. c #A49B83",
"W. c #AB9B83",
"Q. c #AA9D8A",
"!. c #A69A8A",
"~. c #B49B87",
"^. c #AF9F93",
"/. c #87A297",
"(. c #98A390",
"). c #A9A48A",
"_. c #B2A58C",
"`. c #B6A78B",
"'. c #ACA495",
"]. c #ABA897",
"[. c #B4AC9C",
"{. c #B8A996",
"}. c #BAB499",
"|. c #ADB297",
" X c #87A8A7",
".X c #86B9B9",
"XX c #92AFAD",
"oX c #AAAAA4",
"OX c #B4ACA3",
"+X c #BAACA6",
"@X c #A7B9AA",
"#X c #BCB4A4",
"$X c #BBB3AA",
"%X c #B8B7A8",
"&X c #BBBAB3",
"*X c #A2B7B5",
"=X c #C2B79A",
"-X c #C2A98D",
";X c #C2B4A4",
":X c #C2B4AB",
">X c #C3BBAB",
",X c #C5BBA5",
"<X c #C4BCB3",
"1X c #CABCB3",
"2X c #C8BBB9",
"3X c #CDBBB4",
"4X c #98C3BB",
"5X c #85C4B9",
"6X c #AAC7B8",
"7X c #B9C4B6",
"8X c #BEC2AF",
"9X c #C7C3AB",
"0X c #C3C2B4",
"qX c #C5C4BB",
"wX c #CBC3BB",
"eX c #CAC8B7",
"rX c #D5C9B8",
"tX c #D6D1B6",
"yX c #C6C09E",
"uX c #88C7CA",
"iX c #85CBD8",
"pX c #95CCD5",
"aX c #88D4DA",
"sX c #98D4D9",
"dX c #97C8C9",
"fX c #ACD1CD",
"gX c #B9E2DA",
"hX c #86D8E8",
"jX c #99DAE6",
"kX c #86D3EB",
"lX c #ABDCE6",
"zX c #90E2EB",
"xX c #A8E4EB",
"cX c #B9E6EA",
"vX c #B4EEF4",
"bX c #C9C7C3",
"nX c #D4CBC5",
"mX c #CAD6C8",
"MX c #D9D4C8",
"NX c #DADBD2",
"BX c #CBDAD4",
"VX c #E3DACB",
"CX c #E4DBD4",
"ZX c #DDE5DB",
"AX c #CDE6DF",
"SX c #E8E6D8",
"DX c #F1EBD7",
"FX c #D5ECE9",
"GX c #D7F5F6",
"HX c #CCF1F1",
"JX c #E8EAE4",
"KX c #E7F4EA",
"LX c #F6F6E8",
"PX c #FAFBF1",
"IX c #EDF0EE",
"UX c #92BFC4",
/* pixels */
"T r.m.! ! ! ! Q V l l V ~ ~ E E W c.y.r.r.y.M.M.y.M.R b j j l b V G L G W E V Q W 6.K J J A l k h b A b c v V Q Q ",
">.r.M.y.y.! ~ l k l V ~ l G ~ E ! y.r.R Q r.! ! Q ~ ~ j y j l b Q E W W G l b l G K @.J T H b j A T R R R R e.Q V ",
"V b l j j h h k V Q M.M.! W G Y W ~ ~ v v H W W ~ W ~ b ~ ~ ~ ! ! Q ! 3.! r.y.y.m.m.b.A.C.C.A.M.m.6.K T 2.T A v v ",
"j j h h h h c Q y.y.y.! c.3.! m.! E M v M ~ W c.v.M.c.c.W ! U ! M.M.3.T H ~ ! M.m.c.6.6.5.c.m.N.m.m.3.6.T H H E E ",
"j l b V V V Q y.R W W W 3.M.M.M.r.Q V b J W W ! M.M.U M.v.iXv.kXv.v.W J W 3.c.A.m.m.5.5.b.6.6.5.A.A.N.c.g.g.k.A.x.",
"~ E ! R Q Q >.r.R G L L G ~ V V A A Y Q y.M.m.M.c.U U U pXpXf  XpXkXv.m.Z.S.D.S.V.Z.K.Z.B.c.6.c.B.Z.N.4.-.-.4.f.x.",
"3.3.! R ~ R r.W G G G G E V c h c V Q r.y.M.M.v.U I I .X*X*XoX X/..XkXD.6.J K y.N.k.f.w.;.+.+.0.C.k.-.Y H Z v c c ",
"! Y b j k E ! H x L J ! Q Q C k l V Q W ! c.v.I UXsX XoX&X+X+XoX^.XXaXD.K D J J E A v v T <.9.C.C.x.t.w.w.E v z c ",
"b k h k ~ ~ ~ ~ K 3.c.M.y.Q c h j l c H K %.kXcXFXBX7X$X#X:X:X[.!.oXI K J M D M N N c N v Z :.w.a.a.x.x.w.A v A E ",
"b Y R r.! ! W M.M.M.V.V.V.y.e.A A ~ 3.c.%.jXvXFXZX0XOX;X3X;X;X[.'.XXI J ;.;.h.h.F.f.] v m :.w.e.v z z N v M :.w.l.",
"H E 2.2.r.M.M.D.D.V.M.M.! Y V v W c.kXkXcXGXBX$X<X:X:X:X;X;X}.}.^.XX%.y.z.F.h.8.,.7.;.<.f.x.w.:.A A E :.:.<.x.K.Z.",
"m.y.3.R y.M.D.V.D.V.M.E z y y x K kXlXcXFXNXoX$X<X2X1X:X#X=X}.).(.XXv.y.f.] m M m =.8.g.x.i.r.=.>.>.x.z.C.C.N.z.C.",
"m.c.g.N.A.V.V.V.M.y.Y c j c G $.v.xXFXFXJXwX<XwXqX&X&X+X;X;X-X).(.s D v M m C C A ] <.0.f.9.4.q.j.C.J.g.6.J =.6.g.",
"V.c.c.m.c.6.W J b b k z J 5.D.kXvXHXFXPXJX3X<XqX&X$X&X<X;X=X{.)./.s a x M :.Z A A :.f.B.z.h.0.q.9.<.+.-.4.g.5.4.5.",
"3.T J 5.5.3.W H b c v =.m.n.kXxXGXIXJXJXnXrXeX<X<X1X:X:X#X{.).U.p I @.t.6.+.M Z x.k.j.g.f.i.<.4.4.9.j.B.K.L.C.C.C.",
"b G 2.N.A.g.t.>.t.g.k.N.v.v.jXGXIXIXCXnXbX2X8X0X0X>X;X}._._.W.T.f %.b.Z.q.6.0.N.x.f.0.4.<.<.i.k.g.j.z.J.J.z.g.1.E ",
"W m.Z.K.Z.g.E :.e.E @.c.&.xXGXKXJXnXbXwX2X0X7X0X<X%X=X`.`.`.Q./.d hXzXB.L.L.B.P.N.g.y.6.T <.f.<.<.>.i.l.l.u.] n v ",
"V.S.C.0.-.H M =.H J K iXvXHXIXJXVX3X2XwX1X0X8X0X<X:X{.`.`.r Y. XpXhXP.D.b.L.B.Z.K.Z.N.g.k.C.z.l.x.i.i.<.,.] ] m ] ",
"N.r.n y y z v H Y c.kXxXFXFXJXSXnX2X2XwX1X0X0X<X:X:X=X~.t E.T.d $.K 6.0.b.C.L.I.L.J.z.C.K.P.L.F.z.g.4.9.f.j.j.j.g.",
"a.e.m N N N M x D U jXHXIXIXLXCXnXwXbX2X0X1X1X<X:X;X-X~.e * p d K +.5.g.N.J.F.l.z.G.z.F.J.G.p.9.0.4.5.g.C.B.z.j.f.",
"n Z { <.9.g.N.m.D.xXHXKXLXJXJXnXbXqXeX0X3X3X3X2X$X[.~.q ; T.s a +.,.0.N.C.z.i.} 7.i.p.p.7.] / =.4.t.C.K.Z.C.B.g.j.",
"A ] :.4.f.4.c.c.iXvXHXKXDXCXnXwXbXqXqX&X1X3X2X3X#XQ.W.E.U.f I c.j.j.f.f.<./ N n C { [ { { / ] >.4.5.g.z.g.j.z.j.g.",
"x.t.t.t.g.6.K U xXFXZXSXMXnXbXnXbXqXqX<X2X3X:X:X}._.).7 p .Xv.g.F.h.f.7.{ ^ N { [ ,.7.7.,.,.4.g.4.>.>.>.<.4.4.4.f.",
"=.:.-.2.0.5.v.jXHXKXZXDXrXwXbXnXqX7XqX1X1X:X:X;X`.).).7 s iXP.F.z.l.p.u.7.7.u.8.f.t.i.x.h.j.k.b.g.f.g.g.g.C.J.J.J.",
"1.+.4.-.4.@.hXHXGXLXDXMX2X3XnXbXbXwXwX0X>X;X,X}._.E.* p 5X&.;.1.{ ] ^ / ' { <.j.C.z.B.B.K.A.L.P.J.K.K.C.C.L.J.0.9.",
"L.G.f.<.@.#.xXGXLXLXDX9X2XbXbXwXbXbXwX2X3X9X,X_.w ; * dX&.b.1./ / n n / 1.4.C.K.B.B.B.L.L.P.P.L.J.F.J.J.C.j.9.=.+.",
"L.q.;.h.b.hXGXIXDXLXVX#X+X2XwXbXbX2X2X3XeX=X_.6 X X fXjXn.L.q.B.p.h.h.j.Z.S.S.P.Z.0.5.q.b.L.L.F.8.8.f.f.j.f.h.z.p.",
"q.+./ +.c.vXGXJXDXMX0X].:X2XwXbXfXbXrX3X,X#X].Y.X fXjXn.P.L.I.B.h.G.L.K.S.S.S.A.B.0.q.0.L.L.F.p.[ ] ] ] ] =.8.i.u.",
"b.@.q.b.zXHXJXDXMX9XOXOX$XqXnXbX2XbXwX>X:X&XoX XpXjXhXP.K.K.P.b.P.P.P.P.S.S.Z.K.C.z.j.f.i.i.}  .{ / Z { w.a.i.[ } ",
"Z.N.q.b.xXGXIXVX#X|.OX+X+X2X2XfXbX2X&X&X7X*XdXpXhXhXP.K.P.C.L.P.L.L.P.L.K.J.J.J.J.f.,.=.] { { { ' n Z u.l.i.:.m / ",
"N.N.b.n.vXGXLX:X[.[.+X$X+X2XqX&X&X2X&X%XdXsXjXn.D.P.B.K.C.P.L.Z.P.K.L.h.8.1.} { ;.,.>.f.i.p.7.] / / 7.z.J.f.<.1.,.",
"y.t.0.%.vXPXSX+XOXOXOX+XoX2X&X2X:X$XoX4XsXhXb.b.L.q.B.B.K.K.J.C.Z.k.8.} / ^ ^ ^ m ;.f.z.F.l.l.h.p.G.J.J.J.J.z.h.p.",
"w.k.b.jXFXIXCX+X^.+X{.[.+X&X:X:X,X(. XsX&.b.b.j.q.4.-.<.t.8.;.1.-.-.;.1.+./ ;.;.0.B.K.B.B.L.I.F.F.J.J.K.L.B.h.H.1.",
"t.k.n.xXFXSX2XoXOX+X{.{.+X$X:X:X].(.uX&.L.j.q.q.9.9.f.0.4.+.D x D F $.*.#.#.*.&.aXhXhXn.b.b.q.8.;.8.j.0.9.I.I.8.} ",
"k.c.n.vXFXNXOXoXoXoX'.[.+XOX+X]./..XaXb.D.9.;.q.9.q.j.B.b.v.I d d p p = = = = = = * s d d a u D +.+.;.1.G.F.G.,.} ",
"4.+.*.lXfX@XoXoXoXoXQ.^.'.'.^.(. XaX&.D.L.q.B.B.L.B.b.v.iXd s * * ; = = = O . . + X X X p p d *.*.$.+.8.p.p.] m / ",
"t.@.U xX7X].oX$XoXoXR.!.)._.!.i pXv.S.N.Z.C.b.n.*.*.*.XXs T.* , > - - - @ - - - @ # # $ ; < i * .Xd #.#.1.7.[ A / ",
"A.b.%.HX6X[.[.#X+X'.Y.e r W.Y.* uXv.b.Z.L.P.hX%.uX Xf T.Y.6 2 8 > - - - - - - @ @ @ @ @ ; + ; * * p g #.b.9.] { a.",
"S.D.sXcX7X}.{.{.{.Q.q q w 6 U.X uXhXb.P.n.n.uX X/.(.).e 6 > > 9 9 8 8 8 9 - - - @ 8 - @ @ @ @ - 7 7 /.f *.$.+.p.G.",
"D.kXsX*X0X`.{.{.-XR.0 w w 6 7 * XXuXaXuXsXd /.(.(.e r w r w w 9 9 9 9 9 - - 9 9 8 8 8 @ - @ - 8 9 > < (.XXaXb.L.I.",
"n.iXfX7X0X|.`._.~.q q t t 0 : $ T././.p /.(.Y.e w r r ~.r ~.r t t 9 9 9 9 0 0 0 8 % 8 8 0 9 9 9 9 9 t r 6X4X&.$.q.",
"hXzX4X7X0XyX_._.% # t -Xr % @ 1 U.Y.T.Y.Q.Y.).r 6 ).Q._.~.~.~.q 9 r r t r 6 0 2 2 0 0 q r w 9 9 t t t =X8X6X5X#.$.",
"n.n..X6X|.}.).`.t O @ 0 : $ @ 0 4 R.U.Q.!.Q.).E.).Y.'.E.{.~.W.~.Q.Q.E.E.6 2 2 2 2 w r _.E.r W.~.`.yX=X=X|.|.fXuXhX",
"B.n.I fX6X).=X-X-X@ O 8 $ % : > > 4 e R.Q._.{.[.).7 Y.'.Q.~.~.Q.^.Y.U.5 5 2 6 e r e w w ~.{.;X=X=X=X=XyX9XmXBXsXzX",
"g.5.#.d 6X|.}.t t 8 @ 0 , $ 2 : 2 ; 5 {.1X3X+X;XDXDX'.W.!.!.!.R.Y.6 4 4 q 4 q 4 e R.W._.}.,X,X,X}.9X9XyXtXFXHXlXhX",
":.] u a 4X|.}.r - > 8 0 , & 1 > ; ; 6 }.9X+X!.^.rXPXLX{.!.R.!.!.R.e e 4 5 5 3 U.R.^.[.#X;X,X,X,X9XeXtXDXSXBXcXjXzX",
"] n ^ D g 6X).: 2 : 4 % , , : 2 > 6 }.=X_.r Q.;XeXNXLXIXOX^.Y.Y.U.U.4 3 & 5 R.!.[.[.[.[.#X9XrXrXMXMXtXtXNXAXlXhXS.",
"{ A / @.aXfX@X|.Y., 1 4 & 1 2 2 2 2 `.=X).).{.!.&XPXPXPX$XY.T.U.U.3 3 3 3 U.R.!.!.].%X<XeXnXVXMXMXnXDXVXSXHXpXv.D.",
"X.d.e.4.n.jXlXfX7X).; 5 3 , 1 & 2 W.`.=X=X`.).).yXDXPXDXCXY.U.U.& U.U.& & U.!.].%X%XwXnXrXnXnXMXMXNXSXPXFXcXjXD.S.",
"d.X.] +.@.b.&.dXfX8X3 $ 1 1 1 2 2 W.}.9XtXyX`.=XVXSXDXZXCX& & $ & & & & U.!.[.:XeXrXwXwXMXMXVXSXDXCXFXAXdXaXn.V.C.",
"C C A { ] J J P fXNX!.% 1 : > % : r =XtXtX=X=XMXVXVXMXVX:X$ $ $ % % % U.^.{.;X1X0XnXnXMXSXCXNXSXSXSXGXHXaX&.j.h.l.",
"B B C A A m J #.fXeX_.4 % $ : ; : 2 =XtXyX`.}.9X;XeX1X1X& . X # $ % 5 R.+X:X1XnXCXCXCXNXNXNXZXKXKXFXvXjXb.q.G.7.} ",
"C A 1.:.e.[ ;.$.4X}.-X~.3 & & & ; , !.,X}.r r 6 r ^.^.& . . X X $ U.[.0XbXMXnXmXnXMXMXZXKXGXGXcXuXuXhX@.=.,.X.H.H.",
"'  .f.h.s.a.g.b.5X|.{.~.Q.R.U., , , < 6 ).6 5 : 1 % # . . . X , Y.].$X8X2XmXNXNXZXVXZXZXHXGXvXzX*.@.J A  .X.X.H.p.",
"} 7.G.l.x.x.x.c.5X6X|._._.~.W.!.6 2 $ + + + . + $ o       # Y.OXeXnXNXMXNXMXMXmXSXJXKXFXcXhXb./ / n ( B | ..d.p.G.",
"p.G.G.l.a.w.r.6.*.5X4X@XOX_.{.t `.).r 4 ; . o o o o ; ).;X;X:X9XbXMXCXCXSXFXFXFXgXdX XI #.D ^ ' ( ` _ ` | ..d.a.h.",
"a.a.e.] ] ,.e.Z u u a pXfXoX|.=Xr |.|.).).}.Q.Y.).#X>X#X}.9X9X9XmXmXZXSXJXKXvXsX&.@.G b v n ( _ ) ) ) ` |  .} 8.p.",
":.A v M ] [ A v S S x F d 4X6XfX6X6X6X|.7XbXmXeX*X@X7XmXNXmXBXAXgX4X XXX5XuX*.@./ O.C B B ( ` ..) ) ` ` ( '  .a.p.",
"C m m :.g.q.4.=.=.:.:.t.b.$.&.aXzXaXsXd UXdXlXsXs s s dXpXsXpXjXn.#.D F #./ ^ O.` B B ` _ B ( ( _ _ ( ' ' } d.l.G.",
"A { a.z.L.B.j.g.w.w.a.x.z.L.L.P.n.n.hXhXkXU a a a a a P *.&.n.b.;.] =.[ ' ' ' ` ) ) ) ) B ` ( ( ( ' | } d.d.s.x.s.",
"} p.F.J.J.J.J.F.f.p.a.l.F.J.K.P.P.D.n.D.N.;./ / ^ / M +.+.9.8.{ ^ ' ' ( O.( ( ( ..) ) ` B _ _ | ' ' } } u.u.u.e.a.",
"d.s.a.l.z.F.F.s.[ [ >.f.J.C.C.C.c.A.N.t.e.}  .O.' ' [ 8.p.d.} ' ( _ ( ( ( ( ( ( _ _ _ _ _ ......} X.u.} [ [ 7. . .",
"' ' C :.y.a.e.C / / 1.t.9.;.>.8.h.9.f.7.} ' O.O. .s.g.z.G.p.} ` _ .._ ..| ................X.X.X.d.s.s.a.e. . .[  .",
"n C n A  . .A O.^ / 8.9.9.;.1.+.p.7.p.X. .n O.' H.G.C.C.G.o..._ ` _ ..X.o.H.o.o.....| | |  . .X.s.s.s.l.s.u.{ ' } "
};
