/* XPM */
static char *_c5f8cd9b6904c18d6d2f8049a90242b7jFxsFWBCVvBt8iZ[] = {
/* columns rows colors chars-per-pixel */
"64 64 256 2 ",
"   c #483326",
".  c #594636",
"X  c #736C78",
"o  c #726356",
"O  c #3C3620",
"+  c #B83D3B",
"@  c #C9382A",
"#  c #DB332C",
"$  c #D6362B",
"%  c #DB2F33",
"&  c #C93A37",
"*  c #DC3433",
"=  c #DB343B",
"-  c #D53837",
";  c #D52D31",
":  c #E4362D",
">  c #E23334",
",  c #E73A36",
"<  c #F33D36",
"1  c #E32E30",
"2  c #B9443D",
"3  c #B7512E",
"4  c #AA5A28",
"5  c #C7423A",
"6  c #D9463B",
"7  c #C8482B",
"8  c #EC4235",
"9  c #E74438",
"0  c #F34239",
"q  c #E7422F",
"w  c #C8642C",
"e  c #BB3D44",
"r  c #A83C4B",
"t  c #C83A43",
"y  c #DB3942",
"u  c #E63D40",
"i  c #95545A",
"p  c #AA4549",
"a  c #B64647",
"s  c #AA4C54",
"d  c #A75459",
"f  c #B65956",
"g  c #B3524D",
"h  c #B16857",
"j  c #885C66",
"k  c #995965",
"l  c #A85B64",
"z  c #B15D68",
"x  c #9A6468",
"c  c #946977",
"v  c #8D6C75",
"b  c #AB6B70",
"n  c #906E5C",
"m  c #C64746",
"M  c #D74844",
"N  c #C75649",
"B  c #CA5352",
"V  c #E54841",
"C  c #D0665A",
"Z  c #D1726D",
"A  c #E26866",
"S  c #FDB45A",
"D  c #FA916F",
"F  c #FDB56D",
"G  c #F39164",
"H  c #EDA158",
"J  c #747888",
"K  c #8F7688",
"L  c #B37586",
"P  c #C37C84",
"I  c #2A93B3",
"U  c #2D9BB7",
"Y  c #66BE9A",
"T  c #5498B1",
"R  c #7091B0",
"E  c #5BBBBA",
"W  c #50AFB9",
"Q  c #66BDA8",
"!  c #71B0B9",
"~  c #6C8897",
"^  c #5DC79E",
"/  c #64C49D",
"(  c #68C39A",
")  c #5DC2AF",
"_  c #64C3A3",
"`  c #68C4A7",
"'  c #65C5B8",
"]  c #72C7B1",
"[  c #1B93C9",
"{  c #2898CA",
"}  c #2999D6",
"|  c #369CD1",
" . c #1BB4DC",
".. c #36A7CA",
"X. c #29A7D7",
"o. c #38A7D9",
"O. c #27B8DB",
"+. c #36B8D9",
"@. c #35B3C9",
"#. c #10BDE5",
"$. c #38ADE4",
"%. c #29B8E5",
"&. c #36B9E5",
"*. c #29BFF1",
"=. c #319DE5",
"-. c #46B6C9",
";. c #56B6C9",
":. c #47B8DA",
">. c #57B9D8",
",. c #48ABD4",
"<. c #6DB8CF",
"1. c #45ADE4",
"2. c #47B8E6",
"3. c #54BAE8",
"4. c #49BCF2",
"5. c #55BAF2",
"6. c #68B6E8",
"7. c #38C5DC",
"8. c #29C2DA",
"9. c #18C3EA",
"0. c #0EC6F2",
"q. c #15C9F4",
"w. c #11C9F3",
"e. c #28C7EB",
"r. c #3CC4E3",
"t. c #3CCBED",
"y. c #37C5E8",
"u. c #3AD2EA",
"i. c #26CDF4",
"p. c #38C9F3",
"a. c #2BD4F7",
"s. c #39D5F8",
"d. c #3DE1FC",
"f. c #48C4DB",
"g. c #56C6DC",
"h. c #5CC8D0",
"j. c #68C6C6",
"k. c #67C9DA",
"l. c #78CAD9",
"z. c #6AD4DA",
"x. c #76D7D8",
"c. c #79CECA",
"v. c #44C5E4",
"b. c #4CC3EC",
"n. c #43CBEC",
"m. c #4CCCEB",
"M. c #48C7E6",
"N. c #57C8E9",
"B. c #4CD3EC",
"V. c #45D4EA",
"C. c #54D3EC",
"Z. c #5CD4ED",
"A. c #5AD6E8",
"S. c #4CCCF2",
"D. c #45C9F4",
"F. c #57C8F6",
"G. c #44D4F3",
"H. c #4BD4F3",
"J. c #4CDAF4",
"K. c #4CDCFC",
"L. c #47D8FA",
"P. c #54D4F3",
"I. c #5CD4F4",
"U. c #54DAF5",
"Y. c #5CDBF4",
"T. c #5DD5FC",
"R. c #54DCFB",
"E. c #5BDCFB",
"W. c #54D3FA",
"Q. c #67CBE7",
"!. c #7ACBE4",
"~. c #67D5E8",
"^. c #78D5E8",
"/. c #63CCF5",
"(. c #63D4F4",
"). c #64DBF4",
"_. c #6CDCF4",
"`. c #64D5FD",
"'. c #63DCFB",
"]. c #6CDCFC",
"[. c #6AD5FA",
"{. c #76DAF7",
"}. c #7DCAF9",
"|. c #49E1FD",
" X c #5CE2FE",
".X c #56E2FA",
"XX c #5DE3EB",
"oX c #63E3F5",
"OX c #63E3FD",
"+X c #6CE3FC",
"@X c #6BEAFE",
"#X c #68E6F8",
"$X c #73E4FD",
"%X c #77E4F9",
"&X c #68E8F0",
"*X c #7EE1DC",
"=X c #8F8C94",
"-X c #AC8B90",
";X c #9494AC",
":X c #AB94B0",
">X c #8CA8B7",
",X c #B1AEB6",
"<X c #BCAC9D",
"1X c #CF8C8F",
"2X c #EA928B",
"3X c #F2AB96",
"4X c #C899A6",
"5X c #CBACB1",
"6X c #FDB7A8",
"7X c #F6B5B2",
"8X c #CCA798",
"9X c #89D4BB",
"0X c #8CD0BB",
"qX c #FEC8B9",
"wX c #F5D3BE",
"eX c #B398C1",
"rX c #87B7C9",
"tX c #9AB8C4",
"yX c #90B2CF",
"uX c #AEB5C8",
"iX c #89BAE6",
"pX c #CFB8C6",
"aX c #FABDC3",
"sX c #88D5C5",
"dX c #92D6C4",
"fX c #87CBD8",
"gX c #97C7D8",
"hX c #85D5D6",
"jX c #8ECDCF",
"kX c #B0CAD2",
"lX c #95E5DB",
"zX c #87D5E8",
"xX c #98D8E7",
"cX c #8BD1EC",
"vX c #B2D4E6",
"bX c #92E4EC",
"nX c #AFEAEC",
"mX c #D1C6D1",
"MX c #FFCCC4",
"NX c #FED8C9",
"BX c #FCDBD5",
"VX c #ECD5C9",
"CX c #FFE4D4",
"ZX c #FEECDB",
"AX c #FAE9D7",
"SX c #FDF3DD",
"DX c #F6F3DC",
"FX c #F2E4CF",
"GX c #D3D7E8",
"HX c #FFEEE1",
"JX c #F3EBE9",
"KX c #FDF4E3",
"LX c #FEFAE4",
"PX c #FCF8E8",
"IX c #EAECEB",
"UX c #DEE0EA",
/* pixels */
"=.$.$.4.4.F.F.5.5.5.F.2.=.{ | o.1.1.2.v.F.D.F.b.F.F.F.F.6.F.:...U ..U W E W E E W -.-.,.g.>.:.:.:.:.} { | 1.1.$.| $.4.D.$.%.&.*.",
"} =.$.4.F.F.F.F.F.4.| } { o.+.2.o.o.:.b.F.F.N.3.5.F.N.2.:.:.U I I ;.' Q ) ' h.) j.h.;.,.;.>.>.>.:...{ { 1.F.5.1.5.4.F.&.X.X.$.$.",
"[ [ [ X.$.o.{ { [ [ [ =.2.5./.F.3.1.1.:.5.,.o.o...1.F.1.3.N.;.;.E ' _ ` ! Q E ) ) ' E <.x.x.^.^.^.*Xl.Q.N.N.f.M.N.+.o...o.+.&.4.",
"} [ [ X.[ I [ [ [ =.1.5./.N./.F./.5.Q./.5.1.1.1.1.3.3./.~.Q.<.Q _ ^ ( Y Q ] ' E ) j.E ' j.jXfXzXhXhXhX^.^.h.g.g.+.:.3.b.1.$.b.S.",
"} [ } } | | o.$.$.&.3.Q.6.>.,.N.F.I.Q.~.N.o.o.1.3.3.Q.Q.^.l.] Y ( _ ` _ j.j.<.;.k.Q.z.z.Q ! sXjXsXsXsXsXx.*Xz.A.I.P.T.T.W.F.E.T.",
" .X.1.=.1.5.4.$.2.3.F.N.:.,...,.1.1.,.,.:.2.2.b.F.Q.~.z.<.Q ` _ ( Y Q ] x.~.~.).).XX^.bXhXsXsXsXsXdXdXdXsXc.z.f.:.b.T.W.F.4.v.b.",
"=.4.F./.5.5.4.p.$.N.5.1.1.o.+.3.1.| [ I X.1.4.F.I.z.h.) _ Q _ _ ` _ ' x.x.z.#XA.h.W h.c.9X9XdX9XsX9X9X0XdXsXx.-.7.$.X.X.X.o.X.[ ",
"&.W.F.5.5.$.=.} ,.F.3.,.| 1.3.6.6.6.| { $.4.4.3.N.z.' ^ _ ` Y ` ^ ' ' z.XX~.).A.7.W c.sX9X9X0XsXc.sXdXdXdXhXx.z.S.&.X.} X.X.X.X.",
"F.T.W.2...[ [ o.1.2.1.1.6.iXiXeX>XR I I { =.$.1.k.x.' _ ` / _ ` / ` x.~.Z.:.N.:.-.W hXsX9X9XdXsXE l.hXsXfXfX~.[.n.%.$.&.b.b.W.b.",
"T.2.X.{ o.2.3.N.N.3.6.iXyXuXK K K J J 6.,.1./.Q.k.j.` ` ( / / _ _ ` z.W ..@.@.:.N.l.sXdX0X0XdXhX;.k.k.<.W U U @.+.+.n.T.`.'.].].",
"o.X.o.,.:.3.N./.Q.!.iXtXK L k l i X X J yX}.{.Q.x.' ` ( ( ( ( ( Q Q j.W -.P.S.E.{.z.fX0XdX0XdXhXQ.~.g.,.,.:.v.r.n.m.Y.+X]./.(.[.",
"4.3.3.N./.Q.3.5.6.xXuXc s r r s L K K X ;XgXcX{.c.Q ` ( ( ( _ ( Q ] ' z.].'.R.W.N.-.x.c.dXdXdXc.k.N.>.b.N.P.E. XR.Y.).[.{.{.[.[.",
"F.[./././././.}.xXeXc p e e s L K R R uX~ fXbXzX' _ / ( ( ( ^ ` Q ] ) *XB.+.%.O.&.@.Q.x.sXsX9XsXz.A.g.XXOX XR.B.f.f.:.N./.[.[./.",
"N.N.3./.[././.iXiXK s t & e l K yXiXxXxX! cXcX!.' ) ^ ( ( ^ ( ` Q Q ` j.@...o.%.D.+.@.z.x.c.*XhXz.B.Z.U.M.M.M.M.m.Z.F.F.`.[.[.`.",
"F.3.N./.3.+.3.cXeXl t = ; t a 4XuXiXrXT l.!.^.k.' ' ^ ^ ( ( _ _ ` ^ _ ) ;.N.b.S.M.f.@.z.*Xz.^.^.(.N.m.P.I.C.I.).$X+X'.T.T.'.`.I.",
"4.1.,.,...:.Q.yXK f t = % y e z pXtXrX;.<.k.!.>.h.) ) _ ( ( ( / / ^ _ ' z.{.[.'.A.g.A.~.z.z.{.Z.b.S.P.T.I.(.].+X+XT.F.b.n.M.r.+.",
"5.3.3.3.F.{.cXuXb 2 - * 1 ; t s 4XuXkXzX^.Q.g.z.x.' ^ _ ( ( ( _ ^ ^ _ j.%X$X$X].$X+X_.&XA.~.(.2.b.F.I.N.2.m.U.E.P.M.+.+.&.+.X.X.",
"N.`.F.F.[.}.cX;Xs & - - # > y e z 4XuXxXcXzXzX^.*X' ` ` ` Y ` / ` Q ` x.{.].+X].(.{.).@X&X).F.N.(.`.'.E.I.P.S.m.M.r.+.+.r.n.S.S.",
"~.~.N.]./.6.R K p @ - * : : $ & t s c :XkXgXbXlXx.] ] sXdXlXlXdX9X` ' x.h.f.g.A.~.+X@X@XOXY.Y.@X@X@XOX XU.S.m.m.Y.E.Y.I.'.OXOX+X",
"&X%X(.T.5.,.R K a & - = : # - 7 t e d k =XmXkXkXvXjXfXbXbXbXlXlXnXjXc.h.-.f.A.A.).oX X.XU..XY. X XU.P.H.S.C.Y.OX'.).Z.C.C.C.F.P.",
"_.Z.2.2.o.>.yXc a @ ; > > % m r a e a r s z k <XuXkXxX!.<.,.k.cXhXjXzXQ.N.C.Z.).oXB.u.u.G.K.U.W.u.8.7.t.m.P.E.OX'.).Y.).E.B.+.+.",
"Z.f.:.2.&.>.>Xc e ; , = = B 2X7X1Xz l s r p p s c :XkX<.;.T fXcXnXxXfXz.[.C.Z.A.f.7.X.O.n.r.v.m.r.7.n.P.W.U.E.E.E.I.Y.U.C.v.7.r.",
"I.T.(.Z.N.6.yXK r t y ; y 2XBXpXmXuX5X<Xb s a p r L pXvXvXvXvXGXUXvXgXzX{.Q.Q.Q.k.f.+.B.OXC.B.v.M.m.S.S.M.3.M.N.b.C.P.U.U.H.H.K.",
"`.C.N.b.:.>.<.;Xs ; y y t Z 7XmXmXpX,X5X5X8Xz s f L :X:XGXGXGXGXuX;X;XjXfXxXbXbXbX{.C.).Z.N. XC.I.).'.T.I.T.(.T.Y.'.OXOX X XR..X",
"F.(.N.N.b.>.k.tXl & = , $ 5 N f z Z 4X5X5X7X5X4Xc -X:X:XeXeXK eXeXeXeXJ uXGXGXuXgXzX_.(.).'._.).{.$X$X+X$X+X).#X+X@XoXC.V.v.t.r.",
"$X[.[.$XOXI.Q.! c r ; % # $ @ 7 y m B s b 5XpXmXpX:XeX:X;X;XeXeXeXeXL 5XJXBX5Xc ;XgXcX_._.Z.(.$X_.$X$X$X].].+XoXY.U.m.7.7.v.M.n.",
"&X@X+X&XXXB.N.fX:Xl t y * $ $ - - $ & & 2 d L pXmXeX:XeXeXeX:X:XeXeX4XaXMXZ B p l pXvXzXQ.Z.C.E.@X@X@XZ.M.B.U.B.B.B.U.U.W.J.J.J.",
"N.g.XXXX7.7.g.l.tXK r t - > * ; # , > ; - m p k 5XuXuXuXGXUXUXUXeX5XBXaXf + & t p i uXjXzXQ.I.T.E..X.XB.r.7.7.7.7.u.V.J.G.r.y.t.",
":.f.XXXXB.f.Z.}.cXuXb e y % > = % 1 > > * - e a l pXmXvXkXkXkXIXJXHXMXf + y % ; 5 p n ,XgXl.~.P.V.G.u.y.+.O.y.t.J.G.G.u.t.y.t.L.",
"F.`.oX&XoXY.~.{.xXkX<Xf e y = > > * 1 1 : > - & r L UXGXkXGXIXIXHXNXh 3 & = 1 > ; & g -X=XrX>.2.r.u.y.y.e.+.y.J..Xn.7.8.y.y.G.s.",
"T.T.C.).E./.Q.;.zXgXkX-Xr t y > * : 1 1 > 1 $ $ - a 7XBXIXPXPXBXNX2X5 @ = % = = = & 3 d 5X>X!.N.H.G.u.r.&.v.R.OXE.B.7.f.V.G.V.s.",
"2.S.M.2.C.N.(.l.c.gX,X5XP a t % # > * % > * # - & + s b -XFXHX8Xx f 2 & - ; = = = = - a 1Xv yX^.OXR.U.P.U.OX+XOX+XOXY.J..XV.V.V.",
"b.D.b.M.Z.).(.^.l.~ ,X-X4X1Xm - > : # > % , @ 7 g h 3XNXCXZXSXFXNXqXD f a & & = = ; , y f k ;XyX{.OX@X@XoXOXOX+X].oXXXu.u.7.e.r.",
"W.T.U.C.C.).).{.zXrX~ X k Z A - 1 > * - - $ B Z qXNXBXZXKXSXDXSXSXCXCXNXqXC 2 & $ - * ; t s j uX^.Y.C.f.f.XX.XV.).+XXXu.8.7.y.n.",
"D.W.P.P.C.Z.[.[.{.zXgXX j s 2 - - ; ; 6 & N 6XNXAXZXSXZXAXVXVXFXSXKXAXCXCXMX2XN 5 9 $ * t B s :XW @.@.+.f.V.7.u.OX@X|.u.u.u.J. X",
"p.&.n.C.m.M.N.F.(.^.<.tX,Xk 2 5 - * = & g qXZXSXSXZXPXSXLXZXBXHXHXHXLXLXZXCXNX6X5 & $ * y B a j T @.V.V.V.V.V.J..XG.8. .u.|.@X@X",
"X.+.r.P.m.v.F.[.[.C.k.zXgX,Xl 2 - = - t 6XNXCXFXSXKXKXDXPXKXZXKXPXPXDXAXZXCXAXMX2X5 * : - 6 5 i >X^.'.m.M.v.f.u.G.u. .8.u.|.XXXX",
"n.U.I.E.Y.F.[.[.F.I.{.Q.zXkX5Xl e t m Z qXNXFXAXKXKXKXPXDXDXZXHXPXPXKXKXKXBXVXBX7XC & * # $ 5 d uXzXN.C.U.C.V.V.G.t.u.s.|.XXA.A.",
".X X`.).+X+X].[.'.'.(.#XoX!.tXv s B P NXAXFXwXVXFXPXPXPXKXKXLXSXPXAXDXKXFXwXCXZXBX6XC & - @ & s =XrX>./._.$XoXXXU.y.G..X XXXA.z.",
"J.OX(._.].)./.S.N.P.].I.C.N.rX:Xx 2XqXZXZXFX.   v FXPXDXLXSXSXLXSXSXLXDX. O -XZXHXCX6XA - - & p v >X!.[.].$X+X#XOXH. X X#XXXXXA.",
"A.A.Z.(._.[.Z.f.7.B.].'.C.N.<.:Xx 6XCXSXSXwXo   o DXPXDXDXDXLXSXSXZXSXDXo O o FXPXCX7XD 6 ; - e x >X!.$X%X@X X#XP.U.U.I.oX).A.A.",
"f.A.].%X%X#XOX XR.K.m.b.+.-.R J i G wXCXSXSXVX<XFXPXDXDXSXDXDXDXAXLXAXDXFX<XDXZXZXCXC B & $ - e j kXzX%X$XoXA.A.).C.f.N._.#X$X$X",
"Z.).$XOXY.Y. X.XL.%.X.%.y.-.>Xj p a h NXHXHXZXZXLXDXDXSXSXSXSXSXLXSXSXSXKXHXAXCXwX3X3 D 6 7 6 r n >Xl.A.)..XA.oXZ.N.g.#X%X%X$X$X",
"C.(.'.U.U.R.R.s.e.*.*.%.y.6.>Xk a m h NXwXCXCXAXDXSXLXSXDXSXDXSXKXDXSXSXZXCXCXqX6X3 3 3X6 7 & 4 v >Xj.A.).oX).@X).).%X%X%X%X$X+X",
"I.'.OXR.H.n.y. .%.p.*.p.F.cX,Xz m 5 g wXCXBX5X5XAXSXSXDXSXSXSXLXPXPXPXDXVX8X3X6Xw 4 w F S 4 w 4 =XsX^._.oX#XOX+X+X%X%X{.%X$X%X$X",
"I.T.E.W.y.O.%.%.p.p.s.F.cXuXb B M 7 g wXZXKXSXDXSXSXKXSXSXAXLXDXKXPXDXSXCXMXZ C G H F S F F F wX0XjXzX&X).+X+X#X#X_.%X%X%XbX$X$X",
"Z.(.R.S.+. .X.y.u.J.C.zXuXc f 6 9 6 g qXCXZXSXLXLXSXSXSXSXSXLXDXDXLXSXHXBX2X3 3 G F S S F F F n gXl.%X%X$X$X).Z.~.).&X#X{._.).#X",
").E.F.t.%.y.p.t.|.B.Y.fX,Xl 6 9 , 6 5 6XCXZXSXSXAXAXSXCXCXCXCXSXSXSXHXCX7XN + 7 7 w S S F F n n jXQ.%X%X#X~.N.Z.A.A.Z.Y.).Z.A.C.",
"E.v.r.t.d.s.u.D.R.P.N.<.x N 9 9 , 9 M A qXMXVXMXMXNXqX6X2XD 6XqXNXAXHXNXZ 5 @ @ $ w S S S F h <XgX{._._.~.A.~._.C.Y.OXOX XY.C.C.",
"b.m.G.K.|.e.y.t.L.b.:.>Xh M 9 < 8 9 9 6 C C G Z C B N g N N g g Z qXNXqX2 $ @ $ q G G w 4 F 8XkXzX_._._._._.oXoXU.E.R. X X XY.E.",
"W.W.D.p.*. .&.t.&.+.:.! f M V u 0 9 9 V 6 6 M 6 6 6 6 6 6 9 9 9 5 C 6XC 7 # $ @ 7 D 7 @ 7 g =XyX^.).%X+X+XOXE.U. X XU.L.K..X X X",
"H.W.*.%. .%.&.r.&.+.g.rXz M V , 9 9 9 6 9 9 q q 8 q 8 q , 8 0 0 9 M M 7 $ # : $ - = $ 5 2 i tXcX[.Y.Y.).oX X X.XR.|.L.G.G.H.H.H.",
"s.L.p.%.%.&.b.v.M.7.g.gXl 6 6 q < < < q q 8 q 9 q 9 < < 0 8 q 0 V 0 q $ # : : : * $ $ & a c yX{.).P.V.n.L.K.L.t.u.G.L.L.L.J.G.t.",
"d.s.%.%.p.W.U.P.U.C.(.gXx N 6 8 < < < 8 8 8 q 9 q 9 0 < < < q q < 0 9 0 # > : : : - - p l uX!.(.R.K.J.s.s.s.e. .p.s.|.|.|.K.L.u.",
"8.O.O.y.S.E.E.I.U.P.Y.<.K g 6 8 0 V 0 0 0 0 < < 8 9 0 0 8 q : # 1 , > V u 1 1 1 = y a l :XfXQ.r.y.y.e.e.9.9.#.*.a.s.L.|.|.K.K.G.",
"O.O.e.n.R.E.E.W.M.m.H.;.;Xc N M 6 V 9 0 0 < < 0 8 8 , : # # # : 1 > > > > > 1 % - e k K yXg.+.O.9.9.9.q.q.q.q.e.e.s.L..X.X.XJ.G.",
"y.e.s.L.L.D.n.r.v.m.D.o.T ;Xb g M 6 6 M 6 9 9 9 q : $ # * = ; = > > * * # * # - a i J <.3.+.#.#.0.w.w.w.0.q.q.9.e.s.G.H.R.U.V.r.",
" .%.p.p.y.&.O.+.M.M.&.X.| T K K n d h f f f a 5 - $ - ; ; y y y = = * $ $ & m p k J <.2.%.#.*.#.0.w.w.a.q.q.q.#.#.u.G.W.R.E.H.m.",
"%.*.s.y.O.O.y.S.I.C.y.t.2.:.6.yXkX,XuXuXkX,X-Xi a + & = = = = ; = * * $ & e d v >XE 7.8.#.0.0.#.0.0.q.q.q.0.q.i.p.G.K.R.E.E.C.P.",
"p.W.G.&.&.S.W.OX@XoXT.R.L.M.(.{.^.zXxXxXxXgXkX5Xc l s a a e + m e + a p d j K <.>.7.8.9.i.w.0.0.#.0.q.q.q.i.a.s.|.K.K.R.U.H.B.C.",
"`.T.W.b.W. X'.OXOXoXOXU.G.S.U.].$X{.cX{.{.{.}.fXrXtX=XX j j i j i j o X >X<.;.o.O.#.9.e.i.q.0.#.0.w.i.e.e.i.s.L.L.G.G.D.n.v.S.U.",
"T.Z.W.W.P.K.W. X@X X XB.v.n.S.T.)._.OX'.`.I.I.Z.6.<.T R >X>X,XtXuXtX<.W :.:.8. .9.w.9.8.e.q.q.w.q.a.a.a.p.s.G.v.D.n.p.D.n.D.H.R.",
"n.n.D.D.&.O.&.D.J.S.y.8.7.r.H.J.m.m.B.J.K.H.G.t.u.+.@.>.Q.z.!.^.^.Q.2.:.r.e.e.i.a.a.s.a.a.a.a.a.s.s.s.G.K.U.H.S.D.p.p.p.D.L.R.L.",
"J.H.D.*.O.O.&.%.D.s. .O.7.7.H.S.B.M.7.u.J.J.J.|.8. .O.G.U.OX#X'.E.y.%.p.e.a.s.d.d.|.s.s.a.a.q.a.i.s.u.V.U.R.T.E.H.t.y.p.G.K.L.&."
};
