/* XPM */
static char *_3e5820ba1bd4d37c8ea9e099e3e4d3fHVNiRiP4YPHxwU55[] = {
/* columns rows colors chars-per-pixel */
"64 64 256 2 ",
"   c #473628",
".  c #544335",
"X  c #716B74",
"o  c #6B6465",
"O  c #BA3B38",
"+  c #B6382F",
"@  c #C8372C",
"#  c #DB342C",
"$  c #D7372B",
"%  c #C83A38",
"&  c #DC3434",
"*  c #D43A34",
"=  c #D73737",
"-  c #D82E2F",
";  c #E4352C",
":  c #E23434",
">  c #E73936",
",  c #F33D37",
"<  c #E52E2E",
"1  c #BA433A",
"2  c #B54F30",
"3  c #B45823",
"4  c #C8443A",
"5  c #D9463A",
"6  c #D34A30",
"7  c #EC4235",
"8  c #EB433A",
"9  c #E54338",
"0  c #F3423A",
"q  c #E7452E",
"w  c #CE6E34",
"e  c #B93C45",
"r  c #C43C47",
"t  c #D63742",
"y  c #E33E45",
"u  c #975659",
"i  c #994E54",
"p  c #A84A4A",
"a  c #B64748",
"s  c #B44954",
"d  c #A85658",
"f  c #B65856",
"g  c #AC524F",
"h  c #926E59",
"j  c #AD6459",
"k  c #975866",
"l  c #8C576A",
"z  c #A85A63",
"x  c #906973",
"c  c #AF6C6F",
"v  c #C64747",
"b  c #D94946",
"n  c #C75548",
"m  c #D05652",
"M  c #E44743",
"N  c #D06658",
"B  c #CD7270",
"V  c #DD6967",
"C  c #FBB65B",
"Z  c #F79171",
"A  c #FCB470",
"S  c #EF9163",
"D  c #DB985D",
"F  c #6E7289",
"G  c #8B7887",
"H  c #AD7687",
"J  c #E17889",
"K  c #3098B6",
"L  c #2292BC",
"P  c #6ABE9A",
"I  c #7298AF",
"U  c #4FA6BB",
"Y  c #67BFA5",
"T  c #70A5BA",
"R  c #5B889E",
"E  c #58C89D",
"W  c #4FCD9D",
"Q  c #64C49C",
"!  c #69C39B",
"~  c #74C19F",
"^  c #59C8A5",
"/  c #56CAB7",
"(  c #4FD3B3",
")  c #65C4A5",
"_  c #6EC9B6",
"`  c #59E1BB",
"'  c #1B97C8",
"]  c #1993CD",
"[  c #2699C9",
"{  c #2A9BD2",
"}  c #1AB2D8",
"|  c #27A4CD",
" . c #29A8D6",
".. c #36A8D8",
"X. c #2AB7D8",
"o. c #3AB4DC",
"O. c #37B7D9",
"+. c #34ABCA",
"@. c #13BAE8",
"#. c #39ACE3",
"$. c #27B9E5",
"%. c #39B8E5",
"&. c #2CB0E7",
"*. c #43ADD9",
"=. c #47B6DA",
"-. c #56BAD9",
";. c #51B0C9",
":. c #79B9C9",
">. c #6FB4D1",
",. c #42ADE6",
"<. c #47B8E7",
"1. c #53BCEA",
"2. c #4ABBF3",
"3. c #53BCF5",
"4. c #63B5DC",
"5. c #3BC4DB",
"6. c #33C9D3",
"7. c #0BC4E9",
"8. c #18C7EA",
"9. c #18CBF3",
"0. c #11C9F5",
"q. c #27C7E8",
"w. c #39C7E9",
"e. c #27C9F4",
"r. c #39CBF3",
"t. c #2AD4F9",
"y. c #3AD5F7",
"u. c #38D4EA",
"i. c #3BE4FF",
"p. c #59CAC7",
"a. c #5BD7C5",
"s. c #48C5DC",
"d. c #59C6D8",
"f. c #51D0D5",
"g. c #65C7DA",
"h. c #78C5D9",
"j. c #66D7D9",
"k. c #77D8D8",
"l. c #6BD5C7",
"z. c #78E7D8",
"x. c #6BE5D5",
"c. c #4CC3E4",
"v. c #44C3EB",
"b. c #4BCBEC",
"n. c #47C8E8",
"m. c #53C3EC",
"M. c #54CCEC",
"N. c #5BCCEC",
"B. c #57C6E6",
"V. c #48D4EB",
"C. c #5BD3EC",
"Z. c #56D5E9",
"A. c #44CCF4",
"S. c #4AC9F5",
"D. c #5CCCF4",
"F. c #5CCAFC",
"G. c #57C6F6",
"H. c #4BD4F4",
"J. c #4CDBFC",
"K. c #47D7F6",
"L. c #54D3F4",
"P. c #5CD4F3",
"I. c #54DBF3",
"U. c #5CDAF4",
"Y. c #53D4FB",
"T. c #5CD4FC",
"R. c #53DCFB",
"E. c #5BDCFB",
"W. c #65C9EA",
"Q. c #76CCE6",
"!. c #67D5EB",
"~. c #78D8E8",
"^. c #62CCF4",
"/. c #65CBF8",
"(. c #64D4F4",
"). c #6BD3F4",
"_. c #63DBF3",
"`. c #64D4FB",
"'. c #6BD5FB",
"]. c #64DBFC",
"[. c #6CDBFD",
"{. c #6DDBF3",
"}. c #73DCFC",
"|. c #77DBF6",
" X c #4BE2FD",
".X c #5BE4FD",
"XX c #57E3FA",
"oX c #59E6EB",
"OX c #63E3FE",
"+X c #6CE3FD",
"@X c #6AE5F7",
"#X c #77E4F9",
"$X c #70E8E9",
"%X c #57E6D3",
"&X c #38CEB3",
"*X c #948A95",
"=X c #AD8B92",
"-X c #9698AF",
";X c #B796AC",
":X c #AF91AD",
">X c #99A5B9",
",X c #8BAAB7",
"<X c #AFA9B5",
"1X c #ACA79A",
"2X c #EF9488",
"3X c #CEA599",
"4X c #FAAF97",
"5X c #CC98AE",
"6X c #CCADB2",
"7X c #FBB6AC",
"8X c #CE9893",
"9X c #94D2BC",
"0X c #8ECFBA",
"qX c #A8CEB5",
"wX c #FEC9B9",
"eX c #FACEB9",
"rX c #DBCFBF",
"tX c #96B7C6",
"yX c #8DB1CA",
"uX c #A8B7C8",
"iX c #B2B7D0",
"pX c #A69EC1",
"aX c #CDAEC3",
"sX c #F4B5CA",
"dX c #89D6C8",
"fX c #92D4C3",
"gX c #96C5D9",
"hX c #8BCCD4",
"jX c #A9C7D5",
"kX c #86CBE5",
"lX c #86D6E9",
"zX c #87D9F5",
"xX c #95D2EC",
"cX c #AACDE5",
"vX c #83E7FC",
"bX c #89EDF2",
"nX c #A0E7D6",
"mX c #FFCCC6",
"MX c #FDD8C9",
"NX c #FFDCD4",
"BX c #EAD1CD",
"VX c #FEE3D4",
"CX c #FEECDB",
"ZX c #F8E8D6",
"AX c #FDF3DD",
"SX c #FAF5DC",
"DX c #F6E5D1",
"FX c #F9DAE7",
"GX c #D3F5F3",
"HX c #FEEDE2",
"JX c #FCE8EA",
"KX c #FEF4E3",
"LX c #FEFAE4",
"PX c #FBF5EA",
"IX c #F4F3F0",
"UX c #CCDCDC",
/* pixels */
" .&.#.2.3.3./.3.3.3.3.,.#.{ { #.,.,.1.1.G.G.G.3.G.^./.W.^.D.<...] [ { ,.,.#.#.2.#.#.,.1.1.3.1.=.<.%.[ ' [ o.o. .| O.A.A.&...#.2.",
"{ &.,.3./.3.F.G.F.2.#.{ { #.#.,.....,.3././.G.2.1.G.1.-.=.=.{ ' L ] #.,.2.2.2.2.#.+...*.1.1.<.1.<. .[ | <.n.v.%.S.v.v.<. . .#.#.",
"] ] ] #.#...[ [ ] [ L { <.G./.3.1.*.<.<.,.,...#...,.1.4.1.1.*.{ #.<.G.F.m.2.S.3.m.1.W././././.].].`.(.(.N.1.1.N.G.o. ... ...2.%.",
"] ] ] { [ L L ' L { *.3.^.1.^.W.^.m.G.F.3.,.#.<.,.1.W.3././.3.1.3.1.G.F./.D.1.=.*.=.W.).W.W.B.c.].C.N.(./.N.B.<.*.=.c.n.<.%.v.Y.",
"&.] [ [ [ { ....,.,.3.^.1.<.=.N.^.^.F.F.S.#...#.<.1.G./.'./.^.'./.`.).).).W.=.=.B.N.!.^.W.N.M.C.B.s.B._.'.).'./.`.^.T.T.L.T.T.E.",
"{ { ....,.3.2.<.3.3.G.1.=...| *.=.=.o.#.,.,.<.G.F.F././.G.<.=.W.|.#XzX}.|.W.W.}.[.[.[.[.].+X].OXU.B.c.`.}.`.N.m.<.S.D.L.S.v.v.v.",
"&.3.3.F.D.m.3.1.,.3.3.<.*.o.,.<.=...' ' #.#.<.D./././.G.1.=.-.W.(.W.).|.}.}.}./.=.<.S.T.T.T.S.S.n.s.c.].[.D.<.<.<.o.+. . . .| ' ",
",.F.F.3.2...[ { *.3.1...+.*.1.G.<.<. .] #.2.<.1.G./.`.G.1.1.1.W.B.B.D.).^.`.[.^.=.o.<.<.%.#...%.n.H.E.E.E.Y.S.S.S.%. .|  . .|  .",
"/././.,.+.L L +.1.,.*.*.1.W././.G.#.] ] { { *.=.1.}.`.D.D.P.[.^.1.^.`.].U.n.v.s.O.O.=.O...| | O.o.w.S.L.Y.Y.Y.Y.A.&.&.v.v.v.D.S.",
"F.,...{ +.-.d.j.W.-.B.^.).)./.'.`.S.S.&.,.1.N.).!.d.*.m.`.c.c.B.D.`.D...| +.O.O.b.b.I.I.I.L.%...O.v.Y.v.' ' | X.O.O.v.E.(.].[.}.",
"*.{ +.*.g.k.k.k.lXj.(.)./.'./.F.<.&.%.%.m.'.'.W.).W.^.[.].v.=.B.B.M.B.=.<.N.F.].+XE.Y.L.b.n.c.b.`.Y.b.%.O.%.v.w.v.S.E.+X[./.).).",
"1.1.N.W.k.h.dXdXdX~.|.'.'.`.G...' ] ] o.^.}.#X}.}.}.#X+X].P.T.].[._.(.P.[.[.D.D.b.O.X.O.5.V.Z.U.M.c.c.c.c.L.E.E.E.E.E.].[.}.'.'.",
"N.N.!.~.hXdX9XfXhXk.!.{.P.c.&.'  .&.%.D.}.}.#X#X}.C.[.(.U.E.].].U.(.M.B.c.O.O...o.O.#.X. .5.M.U.].M.M.`.[.].U.Z.s.s.s.b.C.).).).",
"B.d.d.lXdX9X9X9Xk.>.-.=.+.[ ' X.<.].].#XvX}.[.(.P.<.D.(.B.B.b.M.c.=.O.=.+.+.;.;.W.;.U +.=.C._.(.(.C.C.(.C.s.s.B.M.M.B.N.(.[.'.'.",
"B.=.d.lXhX9X9XdXlXd.-.+.+.+.o.S.].+X(.!.!.|.(.M.v.O.o.+.O.o.=.=.<.*.+.<.g.g.yX,X>X-X-XyXhXkXQ.j.N.M.M.C.M.C.(.].+X+X].T.`.`.].F.",
"-.;.;.k.dXfX9XdXlXW.d.p.g.d.!.`.(.N.N.d.-.W.N.B.L.M.c.1.c.v.=.1.W.>.yXgXtX<X*Xx k l l G *XuXtXh.>.h.W.W.W.{.[.+XOXE.L.c.v.S.v.o.",
"d.-.g.lXfX0XfXdXbXz.z.z.z.l.g.!.[._.!.{.{.g.d.).+XOXU.C.B.C.).lXcXiX;Xk u g p a r e a a h 4Xh X 1XqXyXQ.-.B.!._.I.s.O.X.%.o. .+.",
"B.N.d.lXdXfXfXnXdXdX0X0Xz.dXz.vX#X}.#X#X$X~.|.{._.@X{.}.vX~.kXuX:Xk d s 1 % % @ t & * + 3 4XA 3 h 3XG tXgX:.g.B.c.O.w.O.<.S.n.u.",
"W.{.j.k._ _ dX0X9X9X9X_ _ dXbXbX#X!.W.d.$X#XvX#X#X@X#X#XxXcXuXG i p m m 5 $ * * - = * 6 3 A A 4XA Z d u x <XtXh.{.T.`.P.D.[..X.X",
"#X$Xj.p.l.k.dX0X9X9X9X0XdXz.bX$X!.d.C.!.+XbXbXvX@X|.{.zXcX-X6X2Xf r % = : & * % 5 % M w S A C C A 3 2 1 p d :XjXkX|.N.(.!._.H.I.",
"{.d.p.( p.a.k.dXdXdXdXnXz.z.bX#X|.#X#X[.+X+X#X_.#X).kXyX-XH f a t = = : : & 4 N 2Xm Z Z A C C C A 3 @ 5 * O d x uXzX).].U.n.O.O.",
"j.p.&Xa.p.s.d.~.dXk.l.z.z.z.$X#X!.{.C.s.n.L.+X{.{.zXyX-Xl s v % t : ; : & @ V 7X7Xf w 2 w C C C C S 6 & : & 1 g G yXh.).P.n.n.w.",
"j.l.W / f.f.C.C.j.p.p.a.$X#X#X#X_.Z.s.6.O.Z.+X{.~.xX<Xk s r * & # # & * 4 N 7XNXVXDX4X2 3 C A w w S Z = - & # % p *XyX~.C.H.L.D.",
"x.U ( ( f.=.v.b.Z.Z.d.!.#XvX#X[.+Xn.6.s.O.c.#XQ.yX>Xk a % - & : : * @ v 2X7XVXHXKXSXMX7X2 S C 3 6 6 % t & : < $ O d <XgX+X.XT.T.",
"f.( ( ( f.s.u.V.V.V.C.[.#X#X[.U.L.c.n.s.s.!.!.>.fXx p v $ # > = : * a 4XmXMXVXHXDXZXZXeX4XN 4 6 $ $ - # : < < : * a k <Xh.s.s.n.",
"x.( ( a.%X%Xf.u.w.5.m.[.#X).M.B.].].@XZ.@X{.Q.kXGX5Xg @ > # - = % % 2XVXVXMXDX=Xo SXSXVX4XD 2 + $ > & > # - & < & r p *XT d.s.5.",
"x./ W ` %X%X6.oXI.n.=.s.d.p.f.$X@X@X@X@X@X#X#XxXUXJXc + = = $ * r m eXAXDXDXrX    1XKXCX3XmX2Xv @ @ ; < ; # t y & = O j tXk.Z.I.",
"p./ W W &X&Xf.V.f.B._.@X#X$X$X$Xx.j.$X@X_.!.!.lXcXJXmXf + * * @ a wXVXAXSXLXDX. o BXHXCXrXJXMX7XN O 5 # # & y t = = * p -X:.=.5.",
"U / ^ W ( &X%X%XoX$X$X$Xx.%Xx.a.` a.x.x.d.d.g.,XF aXsX7Xm v * 1 f MXCXAXSXSXKXZXSXSXLXKXCXAXCXVXNXwXV * 5 M t = $ $ @ a x yX-.M.",
"p.` W W W ( ` x.z.x.x.%X` ( ^ ^ W ^ ` k.k.h.h.I :X;X;XFXmXf 1 1 D VXCXKXKXKXKXLXLXSXSXSXLXAXAXAXAXNX7X5 M 9 & > $ $ $ 1 l ,X4.L.",
"Z.j.( ^ W W ^ ) ^ ^ ( ^ ) ) ^ ^ ^ ) _ k.nXcXcX>X:X5X:XaXFXNX2Xj mXVXKXPXPXPXZXPXZXSXKXKXLXKXSXAXCXeXN > q 8 < < ; $ $ O k >XW.H.",
"s.f.a.W W Q _ ) ) ) E Q Y ) ) ) Q ) 0XGXGXGXIX<X:X;X:XaXJXJXNXz MXKXZXHXPXPXLXSXSXSXSXKXKXLXSXSXMXB 5 7 0 ; , < ; $ & O k -Xg.H.",
"6.f.f.a.E E ) ) Q Q ) ! Y Y ) Q ! ~ 9XGXIXIXIXUX:X:X:XFXHXAXDX=XDXAXZXCXPXHXKXSXSXSXLXKXKXLXKXAXwXn 5 8 7 , ; ; < & = r i *X>.6.",
"I.V.j.j._ E ^ ^ Q Q ! P ! ~ ) ) Q ~ nXIXPXPXPXUX:X:X:XFXPXCXAXDXLXZXrXVXCXHXKXKXLXSXSXSXAXKXLXVX4Xn 5 > 0 , ; ; - & t e i R >.s.",
"K.H.I._.a./ ^ ) Q ! P ! ! ! ! ) ! 0XUXSXKXPXIXFX:XH ;XJXJXKXCXMXKXCXBXAXKXSXZXKXSXSXSXSXKXCXAXMXZ m 5 , 0 7 ; # & & : % k 1Xh.@X",
"w.w.v.M.j.l.^ ^ Q Q ! P ! ! Q ! P P qXIXPXIXIXBXpX:X:XBXJXPXVX1XVXCXAXAXPXKXKXKXSXSXSXDXAXAXCXVX2Xn 5 > 7 7 0 # = & < r k uXzX#X",
"| 6.v.M.d.l.p._ ^ ^ ) ) Q ! Q Q Q ! 0XrXIXIXJX;X5X:X:XaXPXJXMXc MXCXSXSXSXKXLXZXZXSXSXSXSXSXSXVX7Xf 5 8 0 0 , : $ * & a l uXkX{.",
"6.oXU.U.C.j.j.z._ _ ) Y Q Q E E W Q ) qXDXCXNX5XH aX:XaXJXmX7Xg 8XVXAXSXKXSXSXLXLXSXSXLXSXSXSXAXeXw 5 8 , 0 , , $ $ % g G gXQ.B.",
"XX.XU._.@X$X!.j.x.j.l.p./ ^ ^ ^ ( ^ _ fX6X=XJ H :X:X5XFXmXB v O N DXCXSXAXKXPXDXDXSXSXSXSXSXSXAXeXn 5 8 , , , , > * + u <XxX!.Z.",
"I.OX_.!.@XZ.Z.Z.f.j.~.k.l.a.p.` x.x.j.fX5Xi e r k sXsXsXf O * % 1 wXVXAXAXSXCXx o DXSXSXDXAXKXAXeXN 5 q 0 , , , & 4 p x jXlX!.Z.",
"U.C.(.!._.oXZ.n.n.n.@X!.f.f.s.s.!.f.-.yX3Xg + g 4XsXsXs + @ : = v V MXSXAXDXBX    1XAXCX6XSXLXKXNXB 6 q 0 > 0 , 9 1 i <XhX~.Z.Z.",
"c.M.}.#X@X@XOXOXE.I.d.d.-.=.=.=.=.c.-.>.h p a z 6XsXc e % - < > - m wXVXDXMXBX. o eXKXCX6XHXSXKXmXD 5 q 9 , M 7 5 a x tXlX#X@X@X",
"T.].}.}.U.Z..XOXY.%.U ;.U U s.O.v.D.Q.-Xu 1 d 3XaX5Xe r - # < < > @ n wXMXMXDXDXrXHXHXNXMXPXKXCXNXN 6 q 9 8 , 7 M f <XxXzX#X#X#X",
"P.T.'./.U.E.I.S.O.=.U I R U s.Z.Y./.gXG p p k 6X5Xk a = $ < < < < 5 @ a 7XmXCXKXKXCXCXMXHXCXNXVXsXm 9 q 7 8 7 7 5 j iXxXbX|.vXvX",
"U._.].`.P.n.O.X.*.;.o X ,XhXK g.).>.pXx i g =X>X=Xk e @ $ ; : : : & = % v J MXAXCXCXVXMXeXMXeX7XV M 7 q , , 7 7 9 f pXxXzXzXvXzX",
"Z.U.U.L.n.X.X.*.4.I X *XtXhXT hX:.,Xx i a i -X-XH z % & : : - : - : = & = e B eXDXeXj j j 2 a v M 0 7 , q , q 7 M s pXxXzXzX#X#X",
"C.U.I.V.$.}  .1.:.X l 8XuX>.T ,X*X=Xg e r z -X>Xz e = > & # : $ - # & & y % f 2X4XZ p 4 5 @ 4 5 M 7 q , 0 , 9 9 b i >XxX#X{.].@X",
"].E.V.5.w.q.2.m.tXX i c iXtX-X*Xx p % t r H pXpXz r : < < : # $ & # * @ % r p d j i p v v b M 9 7 7 7 7 7 0 9 5 v i tX~.|.Z.Z.Z.",
"I.w.5.u.K.r.A.^.gXo i s c H c i e % = % a H pX:Xs r & : & & # & = y * @ 1 d x <X1Xh l u B m b 8 8 > M 8 8 > 8 b f x gXvX(.].M.L.",
"b.n.V.J.J.w.%.m.h.X i e p s e r r = = * v B 5X5Xs O - t : - $ % v m 4 a u <XiXiXgXjXjXiXaXc a b M M M 5 b M b s x pXlX!.+XOXI.I.",
"Y.Y.A.r.q.X.$.v.-.*Xl e r t t & & & - = % v B B O $ < < - : r r J B z l <XcXzX|.Q.g.kXgXiXpXx f 4 6 5 5 b m f x >XlX_.V.oX X.XoX",
"b.R.%.&.} X.r.<.*.>.X e e t : & : : & & - * r e $ # - : t r e H 5XG l G iXkX/.D.B.!.!.).|.lXuX=Xj j f f z l G tXlXC.V.u.u.V.oXV.",
"V.J.w.$.$.q.A.v.S.4.yXl p O % * - - t : # # = = $ * t t e z H aXaXo F yXh./.1.T.`.(.].U.P.{.h.gXgXyX,XI yXyX>.B.b.K. X XK.H.u.u.",
"K.A.%.$.w.b.Y.Y.Y./.kXpXl d O % t t & - # : - t * % e e l H iXcX:XF I Q.).m.`.D.].Z.V.XXR.J.[.(.`.`./.m.G.A.5.X.e.y.y. XR.J.V.u.",
"5.q.} q.K.R.E.T.Y.v.Q.kX-XF k s t t = & $ $ t t r e i G iXcXgXgXF :.kX/.U.XX.XOXoXs.V. XJ.J.K.e.r.w.w.q.8.q.} 8.y.y.y.J.R.R.XXK.",
"} $.e.r.J.XXR.R.A.A.F.,.{ I F o k s a 1 O O e s d l :XuXxXkXkXU >.lX).U.XX.XOXOXXXK.V.y.J.r.@.@.@.@.8.8.7.7.8.8.e.y.J.XXR.R.K.K.",
"$.e.y.J.L.H.w.w.w.A.v... .{ [ R R G x u u k G H uXgXhXzX~.!.U g.!.B.V.I.XX.XE.OXXXJ.y.t.e.8.@.@.7.0.9.9.8.7.9.9.e.y.y.V.I.E.A.w.",
"@.$.r.A.w.O.X.X.u.w.%.&.} }  .o.>.:.tXjXjXjXjXcXlX$X$X@XU.C.d.N.M.H.I. XK.V.r.A.J.r.q.e.8.7.0.0.0.0.9.t.0.7.9.9.$.r.V.I.E.I.K.A.",
"&.r.A.%.o.O.5.y. XK.n.v.S.%.A.T.N.Q.lXzXxXzXxXzX#XI.V.w.w.r.w.5.n.J.J.K.w.q.q.r.r.e.8.8.7.7.7.0.0.0.9.e.8.8.8.q.r.K.Y.E.E.E.K.J.",
"w.Y.Y.%.O.n.J.XXOX.XY.Y.G.S.Y.Y.].+X@X@X#X#X'.'.L.w.q.q.8.q.r.w.K.XX XK.q.q.t.t.e.e.9.e.8.0.0.7.7.7.9.8.8.q.u.y.J.J.R.Y.R.H.V.K.",
"I.I.Y.S.Y..X.XXXXX.XXXXXS.S.E..XOX@X+X+X+X+X[.(.b.u.q.8.8.8.u.r.V.J.y.q.8.9.9.0.7.8.9.9.9.0.7.7.7.9.e.e.8.e.y.K.J.K.K.A.r.w.V.I.",
"I.H.Y.Y.Y.H.L..X.X.X XV.A.w.V.XXI.XXOX_._.U.C.b.V.y.8.X.8.e.u.w.K.y.t.8.8.9.0.7.8.8.@.9.9.0.0.8.9.t.t.r.r.y.y.w.r.r.r.r.r.n.H.XX",
"S.A.A.r.w.X.w.S.R.H.5.X.w.w.A.K.A.V.b.M.Z.Z.V.V.w.q.} q.y.XX XXX Xy.u.8.9.9.9.t.e.t.e.t.t.t.t.t.t.y.K.A.J. XK.V.A.w.r.A.A.K.I.V.",
"Y.S.A.%.X.X.&.$.S.A.X.X.%.v.K.K.V.n.v.H.I.H.J.K.6.} 8.J. XXX.X.X Xu.q.9.9.t.t.i.i. X Xi.t.t.e.e.u.r.A.H.I. XJ. XK.v.%.r.S.R.H.%."
};
