/* XPM */
static char *_fac0a5a215d4595a9a7b2a88950ec3974BcPPUfCm5kulPX[] = {
/* columns rows colors chars-per-pixel */
"64 64 236 2 ",
"   c #191818",
".  c #100D0D",
"X  c #201D1D",
"o  c #22211D",
"O  c #1E1A21",
"+  c #221D23",
"@  c #1D2726",
"#  c #192D37",
"$  c #252223",
"%  c #292525",
"&  c #2A2629",
"*  c #252B2B",
"=  c #2D2A2C",
"-  c #282827",
";  c #322D2D",
":  c #2D332E",
">  c #35362E",
",  c #2D2D32",
"<  c #262C35",
"1  c #332E32",
"2  c #332E3B",
"3  c #2A363A",
"4  c #343334",
"5  c #3A3434",
"6  c #3B3A36",
"7  c #34353A",
"8  c #3A3539",
"9  c #333A3D",
"0  c #3D3B3B",
"q  c #333A37",
"w  c #423D3D",
"e  c #413936",
"r  c #3E4239",
"t  c #43423E",
"y  c #47453B",
"u  c #40452F",
"i  c #1F3642",
"p  c #2A3A46",
"a  c #343C43",
"s  c #3D3D42",
"d  c #363A46",
"f  c #283F50",
"g  c #423E41",
"h  c #443A40",
"j  c #29424D",
"k  c #3C4244",
"l  c #3D444B",
"z  c #354449",
"x  c #2B4756",
"c  c #3A4855",
"v  c #36515C",
"b  c #365969",
"n  c #2C556A",
"m  c #346674",
"M  c #174E5D",
"N  c #444244",
"B  c #4A4545",
"V  c #4B4946",
"C  c #45454A",
"Z  c #4A464A",
"A  c #464A4D",
"S  c #4D4B4C",
"D  c #424944",
"F  c #524D4D",
"G  c #52474B",
"H  c #54514E",
"J  c #58544C",
"K  c #4D4C51",
"L  c #474B56",
"P  c #524E52",
"I  c #574E56",
"U  c #4B5254",
"Y  c #4A5459",
"T  c #555253",
"R  c #5A5555",
"E  c #5C5956",
"W  c #565559",
"Q  c #5B565A",
"!  c #5D5A5B",
"~  c #545C57",
"^  c #4A524B",
"/  c #625C5C",
"(  c #63595A",
")  c #64625E",
"_  c #68615E",
"`  c #63675B",
"'  c #465866",
"]  c #5D5D62",
"[  c #5F5B69",
"{  c #635E62",
"}  c #675E64",
"|  c #4A626B",
" . c #466978",
".. c #586B71",
"X. c #656264",
"o. c #6B6564",
"O. c #6B6965",
"+. c #666569",
"@. c #6A666A",
"#. c #6C6A6C",
"$. c #666969",
"%. c #716A67",
"&. c #736D6C",
"*. c #706668",
"=. c #6E706A",
"-. c #73716D",
";. c #79706E",
":. c #6D6C71",
">. c #676C74",
",. c #716E71",
"<. c #757273",
"1. c #7A7474",
"2. c #7C7A76",
"3. c #7D7A7A",
"4. c #787679",
"5. c #6A7479",
"6. c #55645F",
"7. c #837C7C",
"8. c #817877",
"9. c #7F807A",
"0. c #83817E",
"q. c #8B817F",
"w. c #367084",
"e. c #497987",
"r. c #727A82",
"t. c #847F81",
"y. c #887F80",
"u. c #1890BF",
"i. c #3F829F",
"p. c #4F8496",
"a. c #5993A5",
"s. c #4C8FA4",
"d. c #6795A6",
"f. c #6CAFBB",
"g. c #5BA5BE",
"h. c #188CC4",
"j. c #1B95C7",
"k. c #1D99D5",
"l. c #259AC9",
"z. c #329CC9",
"x. c #279BD4",
"c. c #349FD3",
"v. c #25A4CC",
"b. c #2CA5D3",
"n. c #2AA8D6",
"m. c #3CABDC",
"M. c #36A7D7",
"N. c #2CB4D8",
"B. c #3BB2DB",
"V. c #37B7DB",
"C. c #3AA5CB",
"Z. c #3AACE4",
"A. c #3CB3E3",
"S. c #3BB8E5",
"D. c #33B9EC",
"F. c #5AB4CB",
"G. c #44ADDB",
"H. c #44B3DD",
"J. c #49B7DA",
"K. c #55BBD9",
"L. c #4DADC9",
"P. c #67ABC7",
"I. c #69B7CA",
"U. c #77B7C9",
"Y. c #69BAD6",
"T. c #73BCD8",
"R. c #44ACE4",
"E. c #43B4E4",
"W. c #4BB5E4",
"Q. c #4CBAE4",
"!. c #4CB5EB",
"~. c #4BBDEB",
"^. c #44BBE8",
"/. c #52BDEB",
"(. c #53B9E5",
"). c #49BBF3",
"_. c #52BDF4",
"`. c #5ABFF2",
"'. c #68BDE6",
"]. c #3EC5E3",
"[. c #37C2DF",
"{. c #4AC2DE",
"}. c #5AC5DD",
"|. c #69C5DA",
" X c #77C5D9",
".X c #44C3EA",
"XX c #4DC4EB",
"oX c #48C6E8",
"OX c #53C3E4",
"+X c #54C3EB",
"@X c #5BC4ED",
"#X c #54CDED",
"$X c #5BCBEA",
"%X c #59C7E4",
"&X c #58D1EC",
"*X c #4AC6F3",
"=X c #54C4F2",
"-X c #5CC4F3",
";X c #5DCBF3",
":X c #5CC4FC",
">X c #5BCBFA",
",X c #54C9F6",
"<X c #5CD3F3",
"1X c #5CD5FB",
"2X c #5CDAFB",
"3X c #56D5F5",
"4X c #4ED3FB",
"5X c #63CCEC",
"6X c #69C7E6",
"7X c #78CBE7",
"8X c #67D3EB",
"9X c #78D3EA",
"0X c #63CCF4",
"qX c #63CDFB",
"wX c #67CAF7",
"eX c #63D3F4",
"rX c #6BD3F4",
"tX c #64D4FA",
"yX c #6BD4FC",
"uX c #64DBFB",
"iX c #6CDBFD",
"pX c #67D9F5",
"aX c #72D5FD",
"sX c #72DCFD",
"dX c #76D8F8",
"fX c #76CEF6",
"gX c #69E1FF",
"hX c #73E2FE",
"jX c #7AE3FA",
"kX c #8B8382",
"lX c #888585",
"zX c #938B8A",
"xX c #9D999A",
"cX c #83BDCB",
"vX c #81CCDD",
"bX c #83D0ED",
/* pixels */
"n.D.Z.)._.:X:X_._.).*X^.n.v.z.m.H.E.W.(.-X-X_.:X:X>XwX0XwXwXW.G.l.h.x.Z.!.Z.R.!.R.R.R.W././.(.W.^.Z.x.j.x.A.A.n.b.N.*X].D.n.S.).",
"k.n.Z.).`.`.wX`.>X).n.l.v.C.R.E.M.M.H.`.qXqX_._.).=X5XW.J.H.z.h.h.h.M.^.).!._._.m.C.M.G.W./.!./.!.M.l.b.^.XX~.S.*X).*X^.n.n.Z.Z.",
"k.h.k.n.Z.Z.x.l.h.j.u.b.J.`.wX`.W.H.R.(.!.R.G.M.M.E.W.E.Q.XXZ.b.!.E.=X;X~./._._.,XXX#X;XeXtXeXuXiXeXeXtX@XOXXX=X,XB.M.n.n.Z.D.).",
"k.h.k.x.x.h.h.h.h.b.H.=X0X`.wX5X0X-X-X-X!.R.R.R.A.~.=X;X>X>X=XXX`./.+X;XeX0X/.H.B.H.$XeX5X$XOX+XpX$X$XeXeX5X(.Q.H.H.XXXXS.A.*X*X",
"k.k.x.x.x.c.M.m.m.E._.=X_.W.W.=X;X;XqXeXOXH.C.B.Q.(.-XqXyX;X0XyXqXaXfXaXfX5XJ.J.XX#XpXeX5X5X5X5X%XoX%XpXpXyXrXyXtX>XpX3X,X3X1X2X",
"x.c.n.M.E._.).!./._.:X`.!.m.c.B.Q.H.B.B.V.V.J.OX0X@X0X0X-XQ.J.$XaXjXbXdXaX0X0XiXuX2XiXiXsXaXiXiXpXOXOXeXiXtX;X#XQ.XX3X3X#XoX.X.X",
"Z._.:X:X:X=X~.!.R.`.`.!.G.Z.A.^.E.M.j.j.n.D.oX#XeXwXqX-X/.W.J.@XrXwXfXaXsXsXiX<XH.{.#X3X1X1X,X#XoX{.oXgXgX3X^.B.^.V.n.v.n.b.v.l.",
"!.:X,X=X).M.c.z.G.`.(.M.M.Z._.*XXXS.k.j.D.].S.XX@XeXyX-X/./.+X;XOXOXwXqX;XyXiX0XJ.B.S..XS.M.N.V.{.&X3X2X2X,X*X,X*XS.n.v.n.b.b.b.",
">X>X:X^.b.u.l.M.R.W.G.(.(.`.wXwX-Xm.j.k.k.k.A.W./.rXrX0X;XqXuXeX@XeXwXaXqXOX%XJ.L.V.[.N.N.b.v.N.V.].oX3X4X4X4X4X].D.N.].*X*X>X=X",
"qX!.c.v.M.^.XX=X@X(.(.`.fXwXyXiXiX>X).).D.).:X0XrX%XL.%XtX+X/.<X5X5XwXL.z.C.L.F.5X}.1X1X1X3XV.N.V.oX3X.Xv.j.v.N.D.N.oX3X2XuXiXiX",
"R.c.M.H.^..XXX#X-X0XwXaXaXaXwX-X^.M.M.E._.iXaX5X8X5XeXsXiXJ.L.}.%X|.%XL.F.7X|.s. X8X5XuX{.oX&X].2X1XXXV.[.[.].].oXoX2XgXpXrX0XrX",
"_.~.=X>X;X+X(.OX0XaXaXaXiXyX-XM.v.u.j.B.>XsXsXdXdXsXhXsXpXeX8XpXpX6X6XbXT.T.U.M M f.g.L.{.}.3X3X#XXXoXoXoX&X2X2X2X2X2XgXgXrXrXdX",
";XtXtX0X0X0X0XaXaXaXiXyXwX,XB.l.l.M..X&XhXhXjXjXdXeXyXsXpXuXgX&X8X|.m M M x f i 3 M d.m i.F.6X<X2X&X#XpXgXgX&X&X{.{.{.XXeXtXqXrX",
"+XOX+X;XyX0X$X0X0XJ./.H.z.l.l.M./.iXiXsXjXjXdXrX6XY.6X6X}.}.oX&X}.I.n f c f p 3 < # j M m s.6XrX&X&X&X&X$X{.}.OX#X#X#X#XtXiXtXyX",
"=XQ.+X>X+XH.(.rX0XJ.J.L.z.z.L.(.rX9X X7X9X9XbXY.Y.P.U.P.F.L.V.J.F.a.v p d p z 3 3 # i # p n vX6X&X#X3X#X$X#X8XpXhXgXuX1X1XuXuX1X",
"XXm.G.H.C.H.<XtXeX8XK.6X|.6XT.p.n n m a.f.vXU.p.e.e.e.w.s.F.K.}.f.b c z A A 9 9 3 # r j p x w.T.@X#X;X<X<XuXsXgXgX2X#XoXoXoX.XA.",
"`.(.!.(.`.sXsXiXqX(.F.Y.s.n b v x i i x |  .| | ' v ' b b f.vXU.b p c a l K K a 3 < < 3 p p f w.P.yX$X#XoX&X3X2X3X].N.N.[.[.v.N.",
"'.fX'.wXbXaX6X}.g.P.f.n M j p l z Y c a r z L ] [ W A v j b cXn p l C Y K U W 9 4 a 7 3 d L s x w.bX8XeX&XoX#X#X].].[.V.[.oXoXoX",
"vXbXcXvX7XP.g.p.a.w.b x c d l l l l z 3 9 l U W I [ [ L z c b i # a L W W T X.K 1 1 2 a d l c c v P.bXgX2X4XoX&X2XuX1X<X3X2XgXgX",
"d.p.e.a.e.a.d.e.b ' [ Y K A k k l 3 9 s z l W Q ( ] } } 3 a p < < 9 l C W ] ] C 7 $ & d d d d L c  . X8X&X4X3XgXgXuXeX<X<X3X2X4X",
"c j j j v ' ..' Y L L W ! ^ ^ k N 1 1 9 k s C K F ( *.} h < O @ 2 A a 7 3 h N 4 * = * 7 s l s c g x i.F.}.&XgXgXiXpXpXpXeXXXB.M.",
"9 9 a l L L g G K ] Q Z U D ^ 6 g 2 = s T k 7 S J R } G I d O O < A L s , s s g s K s 7 9 l C L L '  .f.|.|.|.8X9X6X8XpX5X%XQ.%X",
"@ @ < k K Z g g r r A q H ^ 5 N h 5 1 C ~ k q N e N 5 + d 2   O   * A N N s 8 0 Z ! W W K s 7 s K I ....9.m e.g.U.I.|.|.6X9X%X8X",
"@ @   4 Z g s 7 : * r k V D P R g = & 4 0 t ;     ; h e e e   @ < s N ] K 0 g K W P K ] K N C C I [ } 5.6.| j 9.p.d.a.m p.U.vXvX",
"< @ * * * k ^ : * @ * r q 6 F T Z & $ % + = Z ( X.-.0.` $.$.: r 7 7 N +.! g 4 s N w Z Q W N g K } [ [ @.@.r.:.r.O.5.r.' b  ...e.",
"D N 7 * $ @ * r q : : : : - r S 8 w P #.,.4.4.;.2.lX0.` O.T r k s 8 1 C #.] 4 7 0 B S ! +.Z 1 C L L [ [ [ :.g [ #.<.:.>.l L ..~ ",
"} B 2 8 6 q : - B y 6 y V V ~ ~ D ~ #.2.t.y.t.8.8.q.0.8.&.V B F W ! w 4 P ,.N 0 K Z Z R X.F ; 4 I L [ [ :.[ W L } } >.6.Y l D A ",
"*.I E ) / O._ 5 > ; y E ` _ =.E ` =.<.-.;.y.y.y.8.%.8.q.2.o.R G o.3.7.S 1 4 0 g S K P K T V = = h s [ *.>.[ W h P :.] Y 6.^ 9 U ",
"( -.2.;.;.0.8._ J w 5 J ( &.o.J O.<.9.0.2.1.1.y.q.q.zXzX_ / ( h *.1.7.4.8 % = 4 g ] ! K { I = $ ; w E @.] W W g K #.>.9 3 A 7 h ",
"=.2.9.0.0.q.lX0.7.&.G T ( *.o.&.O.2.0.zXt.1.7.zXq.;.0.1.R ( ( } y.kXzXzX! % & 1 C { { Q { ! g 1 4 T P *.&.T W T +.:.+.K D : 2 2 ",
"=.-.2.2.9.-.-.<.&.:.Q X.;.Q w ; % > F &.4.t.3.t.0.) =.E ( } G *.7.7.7.8.R g , & 7 W >.#.P g Z Z d W } *.8.J r H R @.,.:.] I 1 % ",
"8.0.0.2.9.-.O.$.X.] U C / { :.#.O.=.&._ F F E #.-.-.<.E o.( F *.8.;.kX7.E P g , $ S :.4.! h B P 2 G ( ( -.D J ` S B } { #.X.S 0 ",
"E O.E E T ) T ! E H V C F R ,.2.7.7.7.7.3.3.,.&.@.o./ B ( J e _ / 8.7.8.( J R B ; g lXzX@.P B 8 = 1 h { { E Q @.E 1 N E &.X.( T ",
"J O.` E R E T H W F B V P E X.&.@.,.1.4.3.lXt.lXt.8.o.J ( ( J ( ( %._ _ _ G F ( B ; ,.xXkX,.( F 8 1 5 I X.I T ! R P { { ,.<.o.V ",
"E ` ( E J R E ) E H t G E ( / / &.8.7.7.3.t.7.3.3.3.e G _ J e J *.%._ _ ( F P o.E + & P ,.kXO.P 8 g N B { R { I { { { N ( o.o.T ",
"E R / ~ R H ) o.! T N G E } ( ( *.*.1.1.O.,.*.X.T 6 % J G _ 8.8.y J *.J ( F N / R ;   ; R } X.( R S I g I { ,.{ R W ( R #.#.O.E ",
"H H ( J J ( %.%.R J y F ( } ( *.} _ ;.%.} ;.;.*.H % ; ( ( ( 8.7.( e F ( R N F #.Q 4 X & Z } <.! W 5 Z S F } } R { { { / ( R F 8 ",
"J R / ( ( ` -.%.J B w G ( %._ *.*.*.;.;.( ;.1.o.o.; ; e _ 8.7.8.e e ; e ( %.,.O.R N %   = Q E ( R 0 B g 8 P { { { ! X.o.{ S 0 % ",
"R J / _ %._ *.( ( h w B / %.*.*.%.%.;.;._ 8.8.;.( e e e 8.8.7.8.( e % y ( o.1.2.&.T ; X % 5 & P E F F w 8 Z { ,.<.,.X.} R w ; $ ",
"V H J E _ ;.;.%.( w w y J ( o.1.8.;.;.o.J 8.q.8.J e e w _ 8.7.8.;.( w 6 F T ( 8.8.o.5 + + % 1 g ! P 0 = ; = Z +.r.t.#.T T 0 5 = ",
"e V P ( &.o.*./ F e w R ( ( / *.&.%.7.;.( o.8.q.( G _ ( y %.8.8.;.;.R % ; B w / 7.*.S = + & 1 8 B E g ; & + + K } } { +.O.{ { E ",
"e 5 F F E / ( E G w h R ( ( } *.8.%.;.;._ / ) 1.J J 8.;.G _ 8.8.o._ y e V N B F G G R w = + + h T ! S B 8 1 + e w I ! I +.*.X.,.",
"8 = N F I E F F B t S F ( ( ( / } *.&.*.X.) ( E e ( 7.%.J ( 8.%.I Z e { } ( ( G B F w 4 = = =   w P P Z 5 = = h 5 8 G B Z O.7.lX",
"5 5 w ! #.O.X.#.*.o.o.) *./ E R J } &.X.) _ R J > V _ ` J &.8.R w = 5 Q O.o.R e g Z w B h = , - ; F T R ( } K B 1 & g Z 1 0 R #.",
"= 4 1 ! #.{ +.#.#.#.O./ ,.<.,.*.#.:.#.#.1.X.V V 8 ; = y J -.&.*.h w B g V h F R F E o.X.T s = $ X X % B { o.T g 5 , = C h 1 4 B ",
"7 7 g +.@.+.@.+.@.@.@.X.&.1.,.#.#.+.:.$.W E <.2.t w ; > y 2.;.J g = 0 B N w R V B ( X.! Q { P 7 ; $ % % ; R :.! h 5 & h P h 1 0 ",
", , s +.$.$.#.#.<.:.:.#.#.1.4.:.,.+.:.$.! <.9.X.O.y y ) H %._ V N ; 0 P N Z ( N 8 F ( o.Q P Q W R 8 & % $ 1 K Q C Z T Q T Z N V ",
"O & = D W T ] $.#.+.+.+.{ <.,.,.:.4.:.$.:.$.O.9.lX-.F R o.O.T #.1.&.@.,.&.7.X.} F F } ! T ~ T T E ) F ; = 1 h P g g Q I I I P P ",
"+   + 1 9 h 8 0 s N K I T / #.o.@.#.:.5.:.:.:.r.lXlX,.] 4.$.O.X.+.+.+.+.:.:.:.5.@.:.3.3.<.4.<.@.o.&.+.6 C C g s 7 , s C K :.,.,.",
"X $ = 0 B Z K Q T Q Q Q E } X.! W W Q ] [ { :.4.lXlX4.V <.X.X.~ W +.+.+.[ ] } :.+.>.<.<.#.<.1.&.1.&.X.X.:.+.:.X.K Z C 7 2 { r.t.",
"5 Z ! / X.+.+.@.+.X.{ ! { X.O.E W ~ ] ] W ] ] $.X.<.2.~ =.4.<.X.:.:.:.+.:.$.] Y W Q +.@.X.@.<.1.<.7.7.2.X.X.] ~ 7 7 C T W R } } ",
"8 R X.R ! { @.@.@.+.{ { ( +.O.Q ! ! ] ] ] T W W $.<.2.$.V $.:.$.! [ +.@.>.$.] ] ] ] $.$.X.X.@.&.&.r.1.3.,.] ] ! C , 4 C P 9 8 C ",
"N } o.T ( { :.@.+.+.X.! ! X.o.! X.] ] ] ] ] ] $.$.=.3.` 0 T X.] K W ] ] ] ] +.+.+.+.:.4.<.<.1.4.o.@.,.R ! <.X.Q +.E S K { Q ! T ",
"G o.} Q { @.#.{ +.+.+.X.{ { @.X.O.+.+.#.:.+.$.#.,.<.9.<.r ! ] S W T T ] ] +.+.+.:.+.+.#.&.X.X.} @.( &.7.3.:.X.T C E +.Q P ! <.2.",
"H ( F F ( X.:.,.o.+.+.X.` X.O.+.<.<.<.5.<.:.,.#.O.X.O.O.: W X.T V C K W W ] ] ] ] ] Q ] X.X.( ! E S T ) #.:.! T g S S Z S Q O./ ",
"R ( B G ! ( { +.-.@.+.$.] / X.) ! ! ! T T Q ! / W T ~ y 4 r P T U C A K K K T K K K S T ! ! R T R R B ) o./ W W P S Z N 9 K Q ~ ",
"( ( G I T T Q S C S ^ T T ] #.#.) +.#.@.@.<.4.+.O.) ) ^ : V #.! W U F S K T U K K A g I ] ! Q F ) / H ( @.{ P B K P K K g C W C ",
"( ( F R E ! { Q ! X.Q Q Q E E H H ^ N H P ~ o.T H O.O.R $ t X.@.X.S U W K K T Z K K Z T { ! ( T ( ( B G R +.+.{ K I K A C g d g ",
"T F F R R R W S T H S S B C V r t t 0 0 g S S - > T <.X.$ S ) X./ W W ~ ~ T K W W T Z P X.o.} ( F ) I F R ( ( R X.P K I 9 7 2 2 ",
"V e P E E T T Z C C N g 0 w S V S t V r Z Q q . . . u O.: H U V Q +.! T { +.] [ T Q Q ] o.X.! E H / ( B Q R { ,.{ R I W F s = 4 ",
"G w T ( ! R W T F F Z F H R ( E O.O.-.O.W V 4 $   . o ^   y H / T W T S U Q W K Z S Z K ! ( R I T I } F ( } ! } E J J J N 0 - > ",
"G N R E T T H H F S Z F V F H H V H ^ H T S N 6 6 y 6 > o V T W ! ! W T T P A D Z C B B T { ( ( H V ( E B o.O.o.%.` E y y u > - ",
"S G R E T T S S S C B V N t N y t N > t H V V r B r 6 o 0 4 V T R ! T P W D 7 0 C K ( { ! ] Q Q ( Q } +.V ( o.o.%.=.` y ` J y r ",
"B F H E T T S S N N N T / ) o.! E y - 5 T ^ 0 0 y y e r y t D H W S T T S N s 0 g h g g K ! E I I Q Q } } ! _ O.%.` ` u u r u u "
};
