/* XPM */
static char *_1e659d2397d4812fc6166f0cb4ee377SUFBDMABUbdoMMjO[] = {
/* columns rows colors chars-per-pixel */
"64 48 256 2 ",
"   c #010304",
".  c #00050B",
"X  c #00090C",
"o  c #030905",
"O  c #000512",
"+  c #000C13",
"@  c #000D1A",
"#  c #000618",
"$  c #001214",
"%  c #00131C",
"&  c #011C1D",
"*  c #021917",
"=  c #00100B",
"-  c #00221F",
";  c #001523",
":  c #001B24",
">  c #00162B",
",  c #001C2B",
"<  c #0C1A22",
"1  c #001C32",
"2  c #001A35",
"3  c #002124",
"4  c #00222C",
"5  c #07282C",
"6  c #002433",
"7  c #012A34",
"8  c #00243A",
"9  c #002C3D",
"0  c #0C2A34",
"q  c #00323B",
"w  c #083438",
"e  c #112F38",
"r  c #2A2E37",
"t  c #012D42",
"y  c #002847",
"u  c #003445",
"i  c #053948",
"p  c #173B46",
"a  c #003957",
"s  c #173748",
"d  c #223C49",
"f  c #05414C",
"g  c #074757",
"h  c #184952",
"j  c #254755",
"k  c #2F4C54",
"l  c #165868",
"z  c #0F526B",
"x  c #2A576B",
"c  c #176473",
"v  c #396777",
"b  c #356871",
"n  c #57737B",
"m  c #466A72",
"M  c #4C676D",
"N  c #5F837F",
"B  c #146988",
"V  c #2C7989",
"C  c #367586",
"Z  c #2E6E89",
"A  c #177CA6",
"S  c #477A87",
"D  c #4F7D8A",
"F  c #398697",
"G  c #3F919C",
"H  c #3987A5",
"J  c #2F90B3",
"K  c #39A1BC",
"L  c #478B98",
"P  c #568997",
"I  c #508A92",
"U  c #6E8E95",
"Y  c #5A96A4",
"T  c #4699B8",
"R  c #559BB9",
"E  c #4B90A9",
"W  c #6A99A5",
"Q  c #769AA6",
"!  c #699DB3",
"~  c #638CA0",
"^  c #49A5B7",
"/  c #59A6B8",
"(  c #50B3B9",
")  c #79A1AA",
"_  c #6AA6B7",
"`  c #77A7B6",
"'  c #79B4BC",
"]  c #65A9AA",
"[  c #2B99C8",
"{  c #3899C8",
"}  c #309ED6",
"|  c #0AAEDD",
" . c #17AADA",
".. c #19B5DC",
"X. c #0DB3DD",
"o. c #39A4CB",
"O. c #38AAD6",
"+. c #28B8DA",
"@. c #39B8DA",
"#. c #2FA6D1",
"$. c #0CB7E6",
"%. c #13B5E4",
"&. c #1CBBE4",
"*. c #1CBCEA",
"=. c #19B8E5",
"-. c #11B0E5",
";. c #3BACE4",
":. c #23BCE4",
">. c #2DBCE5",
",. c #24BDEB",
"<. c #2BBBE9",
"1. c #27B5E3",
"2. c #34BDEA",
"3. c #37BAE6",
"4. c #32BBEE",
"5. c #4E9DC4",
"6. c #49A8C4",
"7. c #58AAC4",
"8. c #48B5C9",
"9. c #58B6CB",
"0. c #48AAD7",
"q. c #55ADD8",
"w. c #47B9DA",
"e. c #57B9D8",
"r. c #68AAC5",
"t. c #77ADC2",
"y. c #68B6C8",
"u. c #73B5CB",
"i. c #79B9C9",
"p. c #67B9D6",
"a. c #75BCD5",
"s. c #43AEE4",
"d. c #4BB3E4",
"f. c #4BBCE3",
"g. c #46B6E7",
"h. c #57BBE8",
"j. c #54BEF4",
"k. c #48B9F0",
"l. c #64BDE8",
"z. c #39C3DD",
"x. c #1CC3E9",
"c. c #1CC7F5",
"v. c #2BC5E6",
"b. c #23C3EC",
"n. c #2BC3EC",
"m. c #28C7E8",
"M. c #34C2E6",
"N. c #33C4EB",
"B. c #3BC4EB",
"V. c #33CBED",
"C. c #3BCBEC",
"Z. c #3BC5E4",
"A. c #3DD0EA",
"S. c #2CC4F3",
"D. c #2CCBF4",
"F. c #26C9F4",
"G. c #35CBF3",
"H. c #3BCCF3",
"J. c #3CCEFB",
"K. c #36C8F6",
"L. c #2DD2F9",
"P. c #3CD4FC",
"I. c #37D5F9",
"U. c #1CC0DC",
"Y. c #46C4DC",
"T. c #59C8DB",
"R. c #79C3CA",
"E. c #6CC5DC",
"W. c #67C6D8",
"Q. c #73C3D3",
"!. c #7DC3D5",
"~. c #76C8D9",
"^. c #6FC7D1",
"/. c #43C3E3",
"(. c #43CBEC",
"). c #4CCCEB",
"_. c #49C7E6",
"`. c #54C4E4",
"'. c #53CCE6",
"]. c #53C3EB",
"[. c #5BC4EC",
"{. c #53CBEC",
"}. c #5CCCEC",
"|. c #5CCAE3",
" X c #4CD3ED",
".X c #48D4EA",
"XX c #54D2EC",
"oX c #54D9ED",
"OX c #5CD6EC",
"+X c #43C4F3",
"@X c #43CCF2",
"#X c #4CCBF2",
"$X c #46CBFA",
"%X c #54CDF3",
"&X c #5CCBF4",
"*X c #58C5F5",
"=X c #44D2F4",
"-X c #4BD5F4",
";X c #4DDAF5",
":X c #42D3FD",
">X c #4BD4FD",
",X c #45DAFB",
"<X c #4BDCFC",
"1X c #43D8F6",
"2X c #52D5F3",
"3X c #5CD4F3",
"4X c #53DBF3",
"5X c #5BDBF4",
"6X c #5CD4FC",
"7X c #54DCFB",
"8X c #5CDCFB",
"9X c #55D3FC",
"0X c #67C8E6",
"qX c #76C9E9",
"wX c #63D4EC",
"eX c #69D8EA",
"rX c #76D5E8",
"tX c #65C9F4",
"yX c #64D4F4",
"uX c #6BD4F3",
"iX c #64DCF3",
"pX c #63D5FB",
"aX c #63DBFD",
"sX c #6BDCFB",
"dX c #6AD8F7",
"fX c #77D9F6",
"gX c #74CAF4",
"hX c #4AE2FD",
"jX c #5BE1F4",
"kX c #55E3FE",
"lX c #5CE3FC",
"zX c #54E1F5",
"xX c #5DE1EE",
"cX c #64E2F4",
"vX c #63E3FD",
"bX c #6AE4FC",
"nX c #67E9FD",
"mX c #77E5FA",
"MX c #61E1EE",
"NX c #85AAB7",
"BX c #89B5BA",
"VX c #92B5B8",
"CX c #85A6AA",
"ZX c #88B8C7",
"AX c #92B9C7",
"SX c #88BCD3",
"DX c #8AADC1",
"FX c #89C4CC",
"GX c #96C4CA",
"HX c #86C8D7",
"JX c #91CFD8",
"KX c #84CBE4",
"LX c #87D4E8",
"PX c #85DAF7",
"IX c #96D5E4",
"UX c #80E2FD",
/* pixels */
"h.f.d.k.l.5.} j.j.j.s.d.j.h.h.l.l.l.gXd.q.0.6.0.q.`.*Xj.;.k.j.].f.f.g.g.*Xj.j.*X+X3.o.h.p.a a V R _ R R p.d.s.s.k.;.;.;.;.3.3.+.",
"0.O.d.j.j.d.j.l.s.} s.d.l.l.q.5.5.5.q.q.l.j.l.h.w.[ { ;.k.g.0.d.f.w.O.O.d.d.g.@.O.g.tXtXqXq.6.7.B i y a V 6.H { 0.d.0.j.6X].+X+X",
"k.[ d.j.d.d.k.s.s.} } { R A D Z y y a B [ s.j.j.f.g.#X*X*X+Xh.yXtXpXtX&X[.w.d.@.@.f.f.w.0.O.0.{ J T T l 6 6 6 b a.a.l.tXh.f.`.}.",
"} s.s.w.j.d.s.s.s.} [ { a y B 5.5.5.q.q.q.g.j.&X%X&XsXpX%X%X3XaXpXyX[.pXtX{.}.}._.{.g.g.@.w.d.w.g.h.h./ ] C : ; 2 i u.a.p.0XtXyX",
"*Xj.j.d.0.[ } ;.} ;.A B 5.5.q.5.q.l.s.{ j.*X&X].`.].dXpX6X)._._././.XX8X%X_.O.O.O.#.#.O.@.f.[.&X[.[.`.`.e.9.7.l > @ 1 t i.LXl.l.",
"*Xh.q.0.q.0.k.k.j.j.0.0.0.h.l.d.tXl.q.0.w.].&XyX}.}.}._./.Y././.@.@.(.z.@.Z.3.@X%X6X6X&XpX`.p.e.h.0X`.O.w.w.0./ ~ ; O + 8 S r.a.",
"tXl.e.y.C A l.l.j.k.j.j.l.l.l.PXgX7.{ q.tXpXtXfXtXtX&X}.}.5X`.f.#X{.'.w.Y. X2XaX6XpX].f.H a y Z r.r.e.e.0XtXh.p.!.P X X O ; v t.",
"l.p.r.y 2 R KXl.tXj.l.l.l.l.a.r.L z a z pXdXyXtX&X&X].w.@.w.@.g.%X3XwXOXoX.X).9XaX%X%X0.6.R c 9 y 2 Z y.p.gXgX0XrXi.&     O > NX",
"E i < + + g 6.0.d.h.p.r.r.Z > , 7 q r.e.OX'.w.e.w.].Y.XXXX'.).%X9X6X%X3X5X7XlX#X%X#X%XpXsXgX0X5.g : ; 4 P u.e.w.qXSXk o   o $ ; ",
"8 @   o * Y W.d.h.l.r.C y ; @ 8 ] HXrXLXeXeXmXyXpXvXcXnXnXlX6XaX6X*X9XXXXXXX3.Y.f.)._.'.0X`.{ o.7.Y , O ; h 5.q.qXa.d     o . X ",
"@ #     % W p.l.gXp.t % X 4 Y R gXPXqXrXmXrXrXfXuXbX5X/._.lXvX8X6XaXvX2X{.5X3X3XOX'.0X9.8.K [ o.e.p.] , # 2 E r.gX/ ; . o   + 5 ",
"k @       p a.LXKXg @ $ & ` qXfXPXgXPXa.^.^ g c 6.w.Y.).2X{._./.{.'.w.`.3XiXbX3X'.Y.8.f f ^ h.[.'.0Xt., @ # y u./ p @ .   . 6 ` ",
"! 9 @ O . % S t.SX8 # + b i.W.uXmXPXr.u q W.W.8.e.5XOXiX}.T.e.0XW.W.qXuX|.OXyXyX-X2XT.( 5 7 u.fXsXPXSX> . . $ CXj +   X . ; C y.",
"qXr.9 ; % O ; p Q , . O e ' E.fX~./ 6 , _ W.eXuXfX0Xe.9.9./ E G G / SXKX~.0X0X|.+X_.Y.^.b X 9 LXPXKXm #     . * X $ X X 4 P 7.8.",
"W.qX7.L 6 % @ . $ .   . + M _ ~.FX7 # j LXcX}.fXE.g : & : ; & $ * - & ; 3 4 c p.].#X|.^.M = - GXAXk @ O   o o   o X X p ! u.e.}.",
"|.`.e.0Xa._ i ; $ . .     + 7 ZXGXh O ; _ E.0XUXKX9 $ + X   X o = o $ . + $ w y.|.0XfX' = = * n : . . . X X X = = M VX~ a qX&X).",
"].%X`.uXeXp.^.!.i.4 O # . . X : % e + . 6 ' HXqXLX!.S 6 , : - - 3 - : 5 w I i.i.W.r.b < . X X X O . . X % : j CXCXU e 4 F 0X/.C.",
"#X3X].yX}.wXwXfXPX_ 6 O < r < X % & o = + 3 3 x / u._ ~ Q ) ) BXBXCXNX` ` FXR.F 9 8 @ # $ X   $ % : & n DXNX) Q 5 - % g 7.h.(.C.",
"#X#X].&X&X6X8X3XY.p.E 8 O @ Q VXAXW b w - - 4 4 t y 9 7 9 e h h h f w 7 7 7 7 7 : , > > 1 s m NXFX' Q CXCXk ; @ * 4 F 9.dXaXlX8X",
"#X+X#X9X6X9X2.3.@.w.qXt.0 ; & 5 Q AXBXBXGXFXFXi.DXZXt.` ~ I n v m n n I P W Q ` AXAXDXNXDXNXZXAXFXI w - : ; > 6 x _ ~.eX/././._.",
"@X+X+XB.$X4.1.<.2.).dXrXHXP ; % @ $ j BXFXHXLXrXLXJXFXFXFXt.` ` i._ _ ZXFXFXBXFXAXAXBXQ M 0 , 4 4 3 3 , 6 c / y.R.KXW.|.OX'.8X3X",
"=X@X2.<.4.1.1.2.(.#X5XmXrXC b n 5 @ % : ; g ] i.i.` L h i t y a f f f u q w q q q 7 6 , : : ; 6 g Y ZXJXSXFXHXQ.HX( f ( |.XX2X9X",
"@XB.1.<.S.1.2.+X2XXXvXOXwXe.z > > U U 5 - & , ; ; x W ) W ' ~.p.E.^.W.y.^.R.R.R.FXR.HXFX~.LX!.~.~.~.i.i.NXBXQ i : 4 g T.iX7X7X>X",
"(.>.1.B.K.+.=X8X3X5XlX Xz.8.y.x 2 > 5 Q CXU j % ; % 3 3 4 9 b _ Q.a.~.HXHXHXJXJXIXJXJXJXJXHXu.y.^.y.L h , , @ ; , l W.OX;X:X:XM.",
"+.1.+Xk.2.>X;X X{.XX7XZ.z.).wX0XE 6 ; ; 0 U NX) ZX~ p 8 3 : 6 ; % ; & ; : 1 e s j j s e 7 4 % & ; , % % $ & : p Q.eXcXzX1XI.I.V.",
"#Xk.3.;.3.>X;Xz.(.2X(.(.H.Z.)._.9.9.g , @ , > s ! AXZXZXJXGXD d & % & ; ; ; ; > > > ; > ; ; 3 4 , ; 6 p I AXJXa.rX'.z.V.V.m.v.V.",
"+X+X+X+X+X>X=XN.1X>X@X2.2.B.M.C.Y.8.9.^.f , ; # ; % 5 N VXBXVXZXFXFXHXHXHXt.Y L C V V F ^ 9.R.Q.a.qXHXSXAXSXSXZ J +.U.U.m.V.A.A.",
">X$X>X$X:XJ.2.2.:XJ.@X3.+X>X=X:X1X.XoXeXW.y.v 1 : $ * = - * w S SXR.i.a.y.u.a.KX~.E.^.^.~.LXLXQ.y.u.a.HX! u > a #.z.m.m.I.1X-X-X",
"+X>XJ.n.:.1.<.2.H.2.>.$X9X>X>XM.v.>.Z.'.OXW.~.~.!.S u 3 , & % $ ; % & 6 h S ! i.u.r.y.u.u.ZXt.W S 9 , % ; : 9 ^ @.M.G.<XzX;X8XlX",
"1.<.&.:.n.<.4.2.2.<.M.@XB._./.+.+.+.(.lXnXnXbXeXE.y.` AXDX) x 9 , 1 4 4 6 t t u u u 9 u t y 8 6 : 3 , 6 ; z / w..XJ.:XkXlX7X-XM.",
" .1.<.K.N.>.3.2.2.2.=XZ.z.7X;X(.(.9XlX8XlXvX'.8.g u h W ` _ r.^ 6.6.6.6.9.9.7./ E G F F V V C C L ^ 9.w.o.@./.(.7XH.C.1XJ.,.,.%.",
";.$XJ.N.>.>.+X$X9X9X-X1X<XkXlX=X%X7XvXvX8X).Y.@.6.g 6 1 , q V 8.K 8.e.W.0XE.qX0XQ.~.^.^.Q.~.Q.p.Y.'.3.3.M.n.V.,XC.(.(.,XH.*.*.$.",
"+X$X;.1.>.@X#X@XB.>XJ.n.n.V.C.+.(.2X_.2XzXY.+.XXuXfXr.a 6 3 $ & : h I u.i.u.r.r.' ] ] Y L F J /.+..... .1.4.:X=XM.H.,XV.b.&.x.c.",
"$X$X$XK.J.J.N.+.>.G.:.....:.M.v.(.-X-X8XzXzXoXjXmX6.r.r.ZXm : $ % + : 6 > 2 2 2 7 3 4 7 q B O.+.+.x.....&.K.:XK.J.V.n.v.m.F.F.*.",
"2.<.,.-.%.%.|  .=.:.:.v.3.C..X;XzXA.(.;X1X;XoXoXT.f 8 D ZXt.t.ZXW j 7 7 8 0 1 6 4 7 l ^ ( o.+.+.V.n.m.P.J.P.P.G.+.<.n.:.&.=.&.*.",
":X4.,.| -.-.-.,.n.C.(.>XlXcXnXjXA.A..X-X.X(.4XOXrXE.i 2 2 2 v ` ZXBXBXNXNXNXCXCXBX` y.0X=X-X(.@XC.>.n.J.P.S.S.*.,.D.S.S.S.D.P.I.",
"4.1. . ...<.4.4.9XaXaXsXbXiX4X.Xz.xXcXOXOXOXcXiXOX|.p.L 0 ; # + = * % * < : & 3 7 u c f.=XG.P.V.B.J.K.<.n.*.x.=.b.F.*.4.K.K.J.F.",
"-. .1.$X>X7X9X6XsXsXfXuXwXwX5X).oXcXbXcXcXnXcXOX|.^ ^.IXGXk * * = o . X O + & : 7 T {.=XP.n...N.$X$XH.S.:.X.X.x.=.F.L.L.F.*.*.-.",
"n.2.@X9X8XaXpXaXpXyXyXwXiXcXnX5XjXcXcXnXjXlXMXcXeXg , I GXVXVXVXn j 5 0 q h L W.0XOX1XD.x.m.v.:X:X:XJ.I.x.=.x.m.F.D.L.b.*.$.-.$.",
":X>.-X2XeXsX5XiX3X3XiXcXbXcXnXjXvX5XXX5XoXnXnXMXeX~.q * & 3 e k n U U U Y / 8.z.z.V.v.m.I.I.<XH.N.<.n.&.&.x.I.L.&.=.*.%.-.$.$.$.",
"J.1./.'.wXMXiXcXMXcXMXbXnXbXvXkX;X.XOXyXsXbX5X{.iXeXW.c 7 & + O + $ $ 4 i ^ Y.z.v.b.m.V.A.,XkX=XM.M.N.G.I.L.F.*.=.=.=.,.*.x.*.c.",
"2./. X4XjXnXxXzX.XT.xXvXbXlX).M.(.4XbXmXiXbXiX{.w.T.~.~.R.v 4 ; ; % 6 C y.dX;XI.m.m.V.V.V.Z.@X:X=XJ.A.V.m.D.F.*.F.F.L.I.L.L.L.I.",
"6XlX7X-XA.hXV.U...U..X4XXX X_.).2XnXbXbXlXaX3X}.B E _ ' BXBXNX! u.W.9.T.jX1XI.D.F.c.m.V.H.B.M.2.C.C.V.V.m.b.:.=.*.%.&.,.n.:.v.V.",
").4XC.+.+.L.m.U.v.V.kXvXvXnXjXjXvXlX8X2X4X2XXXwX9.q 3 : - 7 i z E.yX4X;XA.V.I.I.L.I.I.I.:X:X:X:XP.G.H.H.G.N.K.n.G.,.<.S.n.&.n.G.",
"@.@.Z.M.G.J.C.C.8X8XnXnXlXlXjXzXzX;X;XoXXXXX5XbXE.c = $ + % q _ eXwX4X.X1XhXhXhXhXhX:XP.:XP.I.L.L.D.b.1.<.<XkX>X:XJ.P.I.S.n.P.hX",
"2X-X;X,XkX<X4X8XnXnXnX8X X XjXlX;X;XzXzXlXvXvXbXmX^.h X # 4 y.fXeX5XlX;X(.hXhXhXhXI.n.S.S.,.=.$.X.%.=.:.J.<XJ.1.=.,.S.*.:.n.P.<X",
"lX4XoX-XlXlXnX8XcXcX;X-X-X XoX.XoX4XjXxXsXbXvX2X8XbX~.g 8 P rXcXbX2X7XkX1XI.1XV.I.D.x.x.=.$.c.c.F.F.b.n.G.S.-.| | -.x.x.&.H.:X-X",
"XXoXzXzXlXjXMXOX_.XX=X;X,X.XzXoX5XxXxXMXeXbXaX<X,XXX0Xr.E !.rXjX5XlX-X;XhXA.V.m.V.m.x.F.F.L.I.L.F.L.D.m.F.%.| $.$.c.c.F.b.G.(.3."
};
